<svg xmlns="http://www.w3.org/2000/svg" viewBox="0 0 1224 790.76"><defs><style>.cls-1,.cls-10,.cls-2,.cls-9{fill:#fff;}.cls-1,.cls-10,.cls-11,.cls-12,.cls-13,.cls-2,.cls-3,.cls-5,.cls-6,.cls-7,.cls-8{stroke:#000;}.cls-1,.cls-11,.cls-13,.cls-2,.cls-3,.cls-5,.cls-6,.cls-7,.cls-8{stroke-miterlimit:10;}.cls-1,.cls-12,.cls-13,.cls-2,.cls-5,.cls-6,.cls-8{stroke-width:2px;}.cls-1,.cls-39,.cls-4,.cls-45,.cls-52{opacity:0.15;}.cls-11,.cls-12,.cls-13,.cls-3,.cls-5,.cls-6,.cls-7,.cls-8{fill:none;}.cls-6{stroke-dasharray:5.13 4.1;}.cls-7{stroke-width:7px;}.cls-8{stroke-dasharray:7 7;}.cls-10,.cls-12{stroke-linejoin:round;}.cls-10{stroke-width:2.5px;}.cls-11{stroke-width:2.64px;}.cls-12,.cls-13{stroke-linecap:round;}.cls-14,.cls-21,.cls-31,.cls-39{font-size:10px;}.cls-14,.cls-21,.cls-31,.cls-34,.cls-39,.cls-45,.cls-52{fill:#231f20;font-family:CooperHewitt-Medium, Cooper Hewitt;font-weight:500;}.cls-15{letter-spacing:0.11em;}.cls-16{letter-spacing:0.1em;}.cls-17{letter-spacing:0.1em;}.cls-18{letter-spacing:0.1em;}.cls-19{letter-spacing:0.1em;}.cls-20{letter-spacing:0.11em;}.cls-21{letter-spacing:0.1em;}.cls-22{letter-spacing:0.1em;}.cls-23{letter-spacing:0.09em;}.cls-24{letter-spacing:0.11em;}.cls-25{letter-spacing:0.11em;}.cls-26{letter-spacing:0em;}.cls-27,.cls-45{letter-spacing:0.1em;}.cls-28{letter-spacing:0.11em;}.cls-29{letter-spacing:0.14em;}.cls-30{letter-spacing:0.11em;}.cls-31,.cls-49{letter-spacing:0.11em;}.cls-32{letter-spacing:0.12em;}.cls-33{letter-spacing:0.11em;}.cls-34,.cls-45,.cls-52{font-size:20px;}.cls-34{letter-spacing:0.09em;}.cls-35{letter-spacing:0.09em;}.cls-36{letter-spacing:0.09em;}.cls-37{letter-spacing:0.09em;}.cls-38{letter-spacing:0em;}.cls-40{letter-spacing:0.06em;}.cls-41{letter-spacing:0.11em;}.cls-42{letter-spacing:0.11em;}.cls-43{letter-spacing:0.1em;}.cls-44{letter-spacing:0.11em;}.cls-46{letter-spacing:0.1em;}.cls-47{letter-spacing:0.09em;}.cls-48{letter-spacing:0em;}.cls-50{letter-spacing:0.11em;}.cls-51{letter-spacing:0.12em;}.cls-53{letter-spacing:0.13em;}.cls-54{letter-spacing:0.09em;}</style></defs><title>New-Diagrams-before</title><g id="Art"><circle class="cls-1" cx="957.32" cy="233.34" r="145.9"/><circle class="cls-2" cx="433.34" cy="209.12" r="145.9"/><rect class="cls-3" x="357.36" y="129.54" width="66" height="66" rx="5"/><rect class="cls-3" x="443.31" y="129.54" width="66" height="66" rx="5"/><g class="cls-4"><rect class="cls-3" x="881.35" y="153.77" width="66" height="66" rx="5"/></g><g class="cls-4"><rect class="cls-3" x="967.3" y="153.77" width="66" height="66" rx="5"/></g><g class="cls-4"><rect class="cls-3" x="881.35" y="250.46" width="66" height="66" rx="5"/></g><g class="cls-4"><rect class="cls-3" x="967.3" y="250.46" width="66" height="66" rx="5"/></g><rect class="cls-3" x="357.36" y="226.24" width="66" height="66" rx="5"/><rect class="cls-3" x="443.31" y="226.24" width="66" height="66" rx="5"/><polyline class="cls-5" points="499.31 183.03 499.31 185.53 496.81 185.53"/><line class="cls-6" x1="492.71" y1="185.54" x2="457.86" y2="185.54"/><polyline class="cls-5" points="455.81 185.53 453.31 185.53 453.31 183.03"/><line class="cls-6" x1="453.31" y1="178.94" x2="453.31" y2="144.09"/><polyline class="cls-5" points="453.31 142.03 453.31 139.53 455.81 139.53"/><line class="cls-6" x1="459.91" y1="139.54" x2="494.76" y2="139.54"/><polyline class="cls-5" points="496.81 139.53 499.31 139.53 499.31 142.03"/><line class="cls-6" x1="499.31" y1="146.14" x2="499.31" y2="180.99"/><g class="cls-4"><path class="cls-7" d="M643.59,598.56c-11.34.14-19.73.21-31.2.21-148.7,0-284.33-11.06-401.46-31.11"/><polygon points="215.7 557.71 196.09 565.06 212.26 578.37 215.7 557.71"/></g><g class="cls-4"><path class="cls-8" d="M642.62,594.76C431.54,583,271.53,497.25,271.53,389.84c0-31.64,14.23-61.64,39.71-88.52"/><polygon points="313.82 305.87 316.27 296.2 306.68 298.91 313.82 305.87"/></g><g class="cls-4"><path class="cls-7" d="M575.41,175.8q20.69-.75,41.8-.75c65.34,0,127.76,5.5,185,15.5"/><polygon points="797.31 200.39 817 193.26 800.99 179.77 797.31 200.39"/></g><g class="cls-4"><path class="cls-7" d="M1080.35,311.58c23.85,25.61,37,53.64,37,83,0,65.62-65.58,124.52-169.55,164.76"/><polygon points="946.91 548.4 933.67 564.62 954.34 567.98 946.91 548.4"/></g><circle class="cls-1" cx="133.23" cy="565.62" r="62.86"/><g class="cls-4"><rect class="cls-9" x="232.02" y="414.53" width="146.69" height="49.14" rx="9"/><path d="M369.71,415.53a8,8,0,0,1,8,8v31.14a8,8,0,0,1-8,8H241a8,8,0,0,1-8-8V423.53a8,8,0,0,1,8-8H369.71m0-2H241a10,10,0,0,0-10,10v31.14a10,10,0,0,0,10,10H369.71a10,10,0,0,0,10-10V423.53a10,10,0,0,0-10-10Z"/></g><path class="cls-10" d="M380.53,153a10,10,0,0,1,20,0c0,11.14-10,8.44-10,13.78v6.6"/><line class="cls-10" x1="390.38" y1="179.16" x2="390.38" y2="183.06"/><path class="cls-9" d="M456.77,254a20.24,20.24,0,0,1,16.1-14.69"/><path class="cls-11" d="M456.77,254a20.26,20.26,0,0,1,10.69-12.95"/><polygon points="467.74 245.34 472.87 239.34 465.11 237.89 467.74 245.34"/><path class="cls-9" d="M472.34,279.1a20.22,20.22,0,0,1-16.09-17.27"/><path class="cls-11" d="M472.34,279.1a20.25,20.25,0,0,1-14.59-11.78"/><polygon points="461.99 267.25 456.25 261.83 454.42 269.51 461.99 267.25"/><path class="cls-9" d="M496.38,261.7A20.22,20.22,0,0,1,480.55,279"/><path class="cls-11" d="M496.38,261.7a20.23,20.23,0,0,1-10.49,15.38"/><polygon points="485.47 272.86 480.55 279.04 488.36 280.21 485.47 272.86"/><path class="cls-9" d="M480,239.39a20.26,20.26,0,0,1,15.41,13.31c.15.46.29.92.42,1.39"/><path class="cls-11" d="M480,239.39a20.23,20.23,0,0,1,13.61,9.46"/><polygon points="489.44 249.48 495.86 254.09 496.64 246.23 489.44 249.48"/><path class="cls-5" d="M407.39,274.31V264.6a6.68,6.68,0,0,0-6.81-6.47H397l-1.86,1.77a7.08,7.08,0,0,1-9.63,0l-1.86-1.77h-3.54a6.67,6.67,0,0,0-6.81,6.47v9.71"/><path d="M390.36,238.19a7.37,7.37,0,1,1-7.36,7.37,7.38,7.38,0,0,1,7.36-7.37m0-2a9.37,9.37,0,1,0,9.37,9.37,9.37,9.37,0,0,0-9.37-9.37Z"/><g class="cls-4"><path class="cls-12" d="M975.93,180.34A13.09,13.09,0,1,1,989,193.43a13.08,13.08,0,0,1-13.08-13.09"/><circle class="cls-12" cx="995.61" cy="198.16" r="13.08"/><path class="cls-12" d="M993.19,184.78c0-9.3,7.53-16.1,16.83-16.1a16.83,16.83,0,1,1-10.25,30.17"/></g><g class="cls-4"><path class="cls-12" d="M909.27,165.78a22.07,22.07,0,0,1,11.94.7c2.14.77,7.44,3.17,5.35,6.21a5,5,0,0,1-2.61,1.7c-5.81,1.87-13.42-.16-19.12-1.71-3.24-.87-8.9-3.48-12.08-1.23a4.79,4.79,0,0,0-1.79,3.78c-.1,3.24,1.46,6.55,3.21,9.17A28.61,28.61,0,0,0,909,195.63c8.72,2.81,21.12,1.47,27.12-6.36,2-2.54,4-7.33.52-9.59a10,10,0,0,0-9.27-.25c-2.59,1.56-3.45,5-3.18,8s1.44,5.86,1.92,8.84.75,7.4-1.55,9.64c-3.86,3.76-9.67,1.66-13.89-.26-2.85-1.3-5.59-2.8-8.35-4.27a15.68,15.68,0,0,0-3.45-1.61,3.35,3.35,0,0,0-2.49.24c-3.35,1.93-.87,6.81,1.2,8.59a14.59,14.59,0,0,0,9.38,3.28"/></g><g class="cls-4"><path class="cls-13" d="M1023.11,297.29h-12.76a3.3,3.3,0,0,1-3.3-3.3v-8a3.31,3.31,0,0,0-3.3-3.3H982.3a3.31,3.31,0,0,1-3.3-3.3v-7.16a8.9,8.9,0,0,1,2.38-5.58l4.77-4.57a4.67,4.67,0,0,1,5.24-.62l21.05,12.26c1.57.91,2.86.17,2.86-1.64v-7.19a3.32,3.32,0,0,0-3.3-3.3h-.93a7.13,7.13,0,0,0-5.2,2.71l-5.38,7.67a7.19,7.19,0,0,1-5.2,2.7h-2.58a3.31,3.31,0,0,0-3.3,3.3v8a3.31,3.31,0,0,1-3.3,3.3h-2.58a3.31,3.31,0,0,0-3.3,3.3v3.56a3.31,3.31,0,0,0,3.3,3.3h11.33a3.31,3.31,0,0,1,3.3,3.3v5.54"/></g><g class="cls-4"><path class="cls-12" d="M887.94,288.46l7.3-19.22c1.29-3.39,2.8-3.24,3.35.35l5,32.15c.56,3.58,1.51,3.59,2.11,0l6.43-38.21c.6-3.58,1.51-3.57,2,0l3.29,23c.51,3.59,1.64,3.65,2.51.12l3.44-13.91c.87-3.53,1.92-3.46,2.32.15l2.89,25.47c.41,3.61,1.79,3.78,3.06.38l7.59-20.22"/></g><circle class="cls-1" cx="788.51" cy="581.64" r="145.9"/><g class="cls-4"><rect class="cls-9" x="766.55" y="618.7" width="40.82" height="31.57"/><path d="M806.36,619.7v29.56H767.55V619.7h38.81m2-2H765.55v33.56h42.81V617.7Z"/><line class="cls-5" x1="767.3" y1="626.65" x2="806.8" y2="626.65"/><line class="cls-5" x1="772.15" y1="634.49" x2="775.45" y2="634.49"/><line class="cls-5" x1="778.75" y1="634.49" x2="801.85" y2="634.49"/><line class="cls-5" x1="772.15" y1="642.34" x2="775.45" y2="642.34"/><line class="cls-5" x1="778.75" y1="642.34" x2="801.85" y2="642.34"/></g><g class="cls-4"><line class="cls-12" x1="721.92" y1="535.27" x2="771.93" y2="535.27"/><polyline class="cls-12" points="724.86 522.29 744.78 522.29 771.73 535.26"/><polyline class="cls-12" points="724.98 548.24 744.78 548.24 771.73 535.26"/><path d="M745.44,511c2.93,6.33,4.6,15.1,4.6,24.32s-1.65,17.89-4.56,24.21h-.71c-2.9-6.32-4.55-15.06-4.55-24.21s1.67-18,4.6-24.32h.62m1.25-2h-3.12c-3.28,6.43-5.35,15.84-5.35,26.32s2,19.78,5.3,26.21h3.22c3.25-6.43,5.3-15.79,5.3-26.21S750,515.43,746.69,509Z"/></g><g class="cls-4"><line class="cls-12" x1="805.24" y1="534.9" x2="858.04" y2="534.9"/><polyline class="cls-12" points="810.76 522.45 831.28 522.45 846.49 516.97"/><polyline class="cls-12" points="810.93 547.34 831.28 547.34 846.44 552.85"/><path class="cls-12" d="M837.52,561.37c-2.23-6.48-3.64-15.91-3.64-26.42s1.42-20,3.67-26.53H825c2.25,6.49,3.67,16,3.67,26.53s-1.4,19.94-3.63,26.42Z"/></g><g class="cls-4"><rect class="cls-3" x="712.54" y="502.08" width="66" height="66" rx="5"/></g><g class="cls-4"><rect class="cls-3" x="798.49" y="502.08" width="66" height="66" rx="5"/></g><g class="cls-4"><rect class="cls-3" x="755.5" y="601.67" width="66" height="66" rx="5"/></g><text class="cls-14" transform="translate(369.09 214.14)"><tspan class="cls-15">1</tspan><tspan class="cls-16" x="7.14" y="0">. </tspan><tspan class="cls-17" x="13.48" y="0">B</tspan><tspan class="cls-18" x="20.53" y="0">R</tspan><tspan class="cls-19" x="27.53" y="0">I</tspan><tspan class="cls-20" x="31.05" y="0">E</tspan><tspan x="37.67" y="0">F</tspan></text><text class="cls-21" transform="translate(361.73 311.14)">3<tspan class="cls-16" x="7.01" y="0">. </tspan><tspan class="cls-22" x="13.35" y="0">R</tspan><tspan class="cls-23" x="20.36" y="0">E</tspan><tspan class="cls-24" x="26.83" y="0">C</tspan><tspan class="cls-18" x="34.21" y="0">R</tspan><tspan class="cls-24" x="41.21" y="0">U</tspan><tspan class="cls-25" x="48.76" y="0">I</tspan><tspan class="cls-26" x="52.35" y="0">T</tspan></text><text class="cls-14" transform="translate(453.04 311.14)"><tspan class="cls-27">4</tspan><tspan class="cls-16" x="6.96" y="0">. </tspan><tspan class="cls-28" x="13.3" y="0">P</tspan><tspan class="cls-29" x="20.22" y="0">L</tspan><tspan class="cls-30" x="26.61" y="0">A</tspan><tspan x="33.95" y="0">N</tspan></text><text class="cls-31" transform="translate(452.99 214.14)">2<tspan class="cls-16" x="7.12" y="0">. </tspan><tspan class="cls-15" x="13.46" y="0">F</tspan><tspan class="cls-32" x="19.86" y="0">R</tspan><tspan class="cls-30" x="27.05" y="0">A</tspan><tspan class="cls-33" x="34.39" y="0">M</tspan><tspan class="cls-26" x="43.74" y="0">E</tspan></text><text class="cls-34" transform="translate(392.71 107.69)">B<tspan class="cls-35" x="13.86" y="0">E</tspan><tspan class="cls-36" x="26.86" y="0">F</tspan><tspan class="cls-27" x="39.1" y="0">O</tspan><tspan class="cls-37" x="54.16" y="0">R</tspan><tspan class="cls-38" x="67.94" y="0">E</tspan></text><rect class="cls-3" x="21.58" y="28.72" width="1161.12" height="729.12" rx="60.58"/><text class="cls-39" transform="translate(921.32 240.76)"><tspan class="cls-40">P</tspan><tspan class="cls-41" x="6.51" y="0">A</tspan><tspan class="cls-42" x="13.85" y="0">R</tspan><tspan class="cls-25" x="20.92" y="0">T</tspan><tspan class="cls-28" x="27.33" y="0">IC</tspan><tspan class="cls-43" x="38.23" y="0">I</tspan><tspan class="cls-40" x="41.75" y="0">P</tspan><tspan class="cls-30" x="48.26" y="0">A</tspan><tspan class="cls-15" x="55.6" y="0">N</tspan><tspan class="cls-44" x="63.41" y="0">T</tspan><tspan x="69.82" y="0">S</tspan></text><text class="cls-45" transform="translate(918.18 130.31)">D<tspan class="cls-46" x="14.86" y="0">U</tspan><tspan class="cls-23" x="29.74" y="0">R</tspan><tspan class="cls-47" x="43.5" y="0">I</tspan><tspan x="50.3" y="0">N</tspan><tspan class="cls-48" x="65.56" y="0">G</tspan></text><text class="cls-39" transform="translate(717.87 589.07)"><tspan class="cls-43">I</tspan><tspan class="cls-24" x="3.52" y="0">NS</tspan><tspan class="cls-20" x="18.46" y="0">I</tspan><tspan class="cls-24" x="21.99" y="0">G</tspan><tspan class="cls-15" x="29.62" y="0">H</tspan><tspan class="cls-44" x="37.23" y="0">T</tspan><tspan x="43.64" y="0">S</tspan></text><text class="cls-39" transform="translate(765.32 685.07)"><tspan class="cls-28">P</tspan><tspan class="cls-43" x="6.92" y="0">RE</tspan><tspan class="cls-42" x="20.55" y="0">S</tspan><tspan class="cls-20" x="27.75" y="0">E</tspan><tspan class="cls-15" x="34.37" y="0">N</tspan><tspan x="42.18" y="0">T</tspan></text><text class="cls-39" transform="translate(790.21 590.57)"><tspan class="cls-24">O</tspan><tspan class="cls-28" x="7.65" y="0">P</tspan><tspan class="cls-49" x="14.57" y="0">P</tspan><tspan class="cls-24" x="21.55" y="0">O</tspan><tspan class="cls-50" x="29.2" y="0">R</tspan><tspan class="cls-51" x="36.27" y="0">T</tspan><tspan class="cls-42" x="42.73" y="0">U</tspan><tspan class="cls-20" x="50.29" y="0">N</tspan><tspan class="cls-25" x="58.01" y="0">IT</tspan><tspan class="cls-43" x="68.01" y="0">IE</tspan><tspan x="78.14" y="0">S</tspan></text><text class="cls-52" transform="translate(756.5 482.22)"><tspan class="cls-18">A</tspan><tspan class="cls-53" x="14.46" y="0">F</tspan><tspan class="cls-18" x="27.5" y="0">T</tspan><tspan class="cls-54" x="40.14" y="0">E</tspan><tspan x="53.14" y="0">R</tspan></text></g></svg>