<svg id="Layer_1" data-name="Layer 1" xmlns="http://www.w3.org/2000/svg" viewBox="0 0 140 30"><defs><style>.cls-1{fill:#009db4;}.cls-2{fill:#f9a51a;}</style></defs><title>Logo_2017_color_RGB</title><path class="cls-1" d="M118.32,9.8a2.13,2.13,0,0,0-2-1.24,1.93,1.93,0,0,0-2,2.16V23.94a1.79,1.79,0,1,0,3.58,0V16.11l2.87,5.51a2.06,2.06,0,0,0,1.94,1.21,2.11,2.11,0,0,0,2-1.23l2.87-5.49v7.83a1.79,1.79,0,1,0,3.58,0V10.72a1.93,1.93,0,0,0-2-2.16,2.1,2.1,0,0,0-2,1.24l-4.33,8.49ZM102.7,12.12c2.49,0,3.68.75,3.68,2.42s-1.24,2.51-3.68,2.51h-2.63V12.12Zm.63,8.25a7,7,0,0,0,4.79-1.63A5.42,5.42,0,0,0,110,14.46a5.1,5.1,0,0,0-1.82-4.13,7.19,7.19,0,0,0-4.81-1.52H98.76a2.1,2.1,0,0,0-2.3,2.29V23.94a1.75,1.75,0,0,0,1.79,1.91,1.77,1.77,0,0,0,1.82-1.91V20.37Zm-25.2-3.12a5.52,5.52,0,0,1,1.38-3.8,4.77,4.77,0,0,1,3.72-1.55,4.65,4.65,0,0,1,3.61,1.57,5.45,5.45,0,0,1,1.42,3.78,5.58,5.58,0,0,1-1.37,3.82,4.59,4.59,0,0,1-3.66,1.54,4.69,4.69,0,0,1-3.72-1.54,5.54,5.54,0,0,1-1.38-3.82m-3.7,0A8.53,8.53,0,0,0,83.14,26a8.62,8.62,0,0,0,6.24-2.47,8.45,8.45,0,0,0,2.54-6.28A8.33,8.33,0,0,0,89.38,11a8.55,8.55,0,0,0-6.24-2.49,8.56,8.56,0,0,0-8.71,8.73"/><path class="cls-2" d="M63.94,9.68a3.51,3.51,0,0,0,6-2.49,3.37,3.37,0,0,0-1-2.49,3.5,3.5,0,0,0-6,2.49,3.36,3.36,0,0,0,1,2.49M50.88,12.12c2.11,0,2.95.43,2.95,1.72s-.94,1.74-2.8,1.74H47.6V12.12ZM47.6,18.6h3.69c2,0,3,.63,3,1.86,0,1.43-1,2-3,2H47.6ZM44,23.44a2.1,2.1,0,0,0,2.3,2.29H52a6.35,6.35,0,0,0,4.23-1.35,4.49,4.49,0,0,0,1.62-3.6,4.56,4.56,0,0,0-2.15-3.87,4.19,4.19,0,0,0,1.74-3.44c0-3-2.27-4.66-5.85-4.66H46.29A2.1,2.1,0,0,0,44,11.1Zm-19.34,0a1.63,1.63,0,0,0,1.06,2.28A1.74,1.74,0,0,0,28,24.57l.87-2.17h6.55l.9,2.17a1.69,1.69,0,0,0,2.25,1.19,1.64,1.64,0,0,0,1.06-2.28l-5.17-13.2a2.32,2.32,0,0,0-2.33-1.6,2.28,2.28,0,0,0-2.29,1.63Zm9.57-4.28H30l2.11-5.53ZM9,23.44a2.1,2.1,0,0,0,2.3,2.29h7.37a1.66,1.66,0,1,0,0-3.31H12.58V10.57a1.79,1.79,0,1,0-3.58,0Z"/></svg>