<svg id="Layer_1" data-name="Layer 1" xmlns="http://www.w3.org/2000/svg" xmlns:xlink="http://www.w3.org/1999/xlink" viewBox="0 0 347.89 198.59"><defs><style>.cls-1,.cls-4,.cls-5{fill:none;}.cls-2{fill:#fff;}.cls-3{clip-path:url(#clip-path);}.cls-4{stroke:#000;}.cls-5{stroke:#231f20;}.cls-6{font-size:22px;fill:#231f20;font-family:CooperHewitt-Semibold, Cooper Hewitt;font-weight:600;}.cls-7{letter-spacing:0em;}.cls-8{letter-spacing:0em;}.cls-9{letter-spacing:0em;}.cls-10{letter-spacing:0em;}.cls-11{letter-spacing:0em;}.cls-12{letter-spacing:0.01em;}.cls-13{letter-spacing:0.01em;}.cls-14{letter-spacing:0.01em;}.cls-15{letter-spacing:0.01em;}.cls-16{letter-spacing:0em;}.cls-17{letter-spacing:0em;}.cls-18{letter-spacing:0.02em;}.cls-19{letter-spacing:0.01em;}.cls-20{letter-spacing:0.01em;}.cls-21{letter-spacing:0em;}</style><clipPath id="clip-path"><rect class="cls-1" x="60.88" y="13.1" width="234" height="172.4"/></clipPath></defs><title>comms</title><rect class="cls-2" x="61.38" y="13.6" width="233" height="171.4"/><g class="cls-3"><rect class="cls-4" x="61.38" y="13.6" width="233" height="171.4"/></g><line class="cls-5" x1="80.3" y1="60.6" x2="274.98" y2="60.6"/><text class="cls-6" transform="translate(143.03 45.1)"><tspan class="cls-7">I</tspan><tspan class="cls-8" x="5.9" y="0">n</tspan><tspan class="cls-9" x="18.3" y="0">s</tspan><tspan class="cls-10" x="29.88" y="0">i</tspan><tspan class="cls-11" x="35.4" y="0">gh</tspan><tspan x="60.34" y="0">t</tspan></text><text class="cls-6" transform="translate(108.1 94.09)"><tspan class="cls-12">O</tspan><tspan class="cls-13" x="14.76" y="0">p</tspan><tspan class="cls-14" x="27.26" y="0">p</tspan><tspan class="cls-11" x="39.82" y="0">o</tspan><tspan class="cls-15" x="52.07" y="0">r</tspan><tspan class="cls-16" x="60.46" y="0">t</tspan><tspan class="cls-12" x="69.65" y="0">u</tspan><tspan class="cls-17" x="82.17" y="0">n</tspan><tspan x="94.64" y="0">i</tspan><tspan class="cls-18" x="100.14" y="0">t</tspan><tspan class="cls-19" x="109.78" y="0">y</tspan><tspan class="cls-20" x="121.64" y="0"> </tspan><tspan class="cls-21" x="126.26" y="0">1</tspan></text><text class="cls-6" transform="translate(108.1 126.1)"><tspan class="cls-12">O</tspan><tspan class="cls-13" x="14.76" y="0">p</tspan><tspan class="cls-14" x="27.26" y="0">p</tspan><tspan class="cls-11" x="39.82" y="0">o</tspan><tspan class="cls-15" x="52.07" y="0">r</tspan><tspan class="cls-16" x="60.46" y="0">t</tspan><tspan class="cls-12" x="69.65" y="0">u</tspan><tspan class="cls-17" x="82.17" y="0">n</tspan><tspan x="94.64" y="0">i</tspan><tspan class="cls-18" x="100.14" y="0">t</tspan><tspan class="cls-19" x="109.78" y="0">y</tspan><tspan class="cls-20" x="121.64" y="0"> </tspan><tspan class="cls-21" x="126.26" y="0">2</tspan></text><text class="cls-6" transform="translate(108.1 158.11)"><tspan class="cls-12">O</tspan><tspan class="cls-13" x="14.76" y="0">p</tspan><tspan class="cls-14" x="27.26" y="0">p</tspan><tspan class="cls-11" x="39.82" y="0">o</tspan><tspan class="cls-15" x="52.07" y="0">r</tspan><tspan class="cls-16" x="60.46" y="0">t</tspan><tspan class="cls-12" x="69.65" y="0">u</tspan><tspan class="cls-17" x="82.17" y="0">n</tspan><tspan x="94.64" y="0">i</tspan><tspan class="cls-18" x="100.14" y="0">t</tspan><tspan class="cls-19" x="109.78" y="0">y</tspan><tspan class="cls-20" x="121.64" y="0"> </tspan><tspan class="cls-21" x="126.26" y="0">3</tspan></text></svg>