<svg id="Layer_1" data-name="Layer 1" xmlns="http://www.w3.org/2000/svg" viewBox="0 0 347.89 198.59"><defs><style>.cls-1{fill:#c8e3ed;}.cls-2,.cls-4{fill:none;stroke-miterlimit:10;}.cls-2{stroke:#fcb53a;}.cls-3{fill:#fcb53a;}.cls-4{stroke:#0874b8;stroke-width:2px;}.cls-12,.cls-5{font-size:6.8px;fill:#231f20;font-family:CooperHewitt-Medium, Cooper Hewitt;font-weight:500;}.cls-13,.cls-5{letter-spacing:0.12em;}.cls-6{letter-spacing:0.13em;}.cls-7{letter-spacing:0.14em;}.cls-8{letter-spacing:0.13em;}.cls-9{letter-spacing:0.12em;}.cls-10{letter-spacing:0.12em;}.cls-11{letter-spacing:0em;}.cls-14{letter-spacing:0.12em;}.cls-15{letter-spacing:0.12em;}.cls-16{letter-spacing:0.12em;}.cls-17{letter-spacing:0.12em;}.cls-18{letter-spacing:0.13em;}</style></defs><title>convex-1</title><path class="cls-1" d="M213.4,95.94c0-31.88-8.16-62.27-22.43-83.68l-1.59-2.18h-6.75l-1.55,2.18c-14.27,21.41-22.43,51.8-22.43,83.68,0,31.7,8.08,62,22.21,83.35h0l0,0,1.48,2.18h7.25l1.6-2.18,0,0h0C205.32,157.9,213.4,127.64,213.4,95.94Z"/><line class="cls-2" x1="58.68" y1="100.53" x2="297.5" y2="100.53"/><polygon class="cls-3" points="296.04 105.51 304.67 100.53 296.04 95.54 296.04 105.51"/><polygon class="cls-3" points="107.65 103.07 112.36 100.36 107.65 97.64 107.65 103.07"/><polygon class="cls-3" points="107.65 138.49 112.36 135.77 107.65 133.05 107.65 138.49"/><polygon class="cls-3" points="107.65 173.9 112.36 171.18 107.65 168.46 107.65 173.9"/><polygon class="cls-3" points="107.65 68 112.36 65.29 107.65 62.57 107.65 68"/><polygon class="cls-3" points="107.65 32.77 112.36 30.05 107.65 27.33 107.65 32.77"/><polyline class="cls-2" points="58.68 65.29 184.62 65.29 303.76 100.53"/><polyline class="cls-2" points="58.68 30.05 184.62 30.05 303.76 100.53"/><polyline class="cls-2" points="58.68 171.01 184.62 171.01 303.76 100.53"/><polyline class="cls-2" points="58.68 135.77 184.62 135.77 303.76 100.53"/><path class="cls-4" d="M178.91,181.69c-14.38-21-23.44-51.65-23.44-85.75,0-34.28,9.15-65,23.67-86.08h13.77c14.51,21,23.67,51.8,23.67,86.08,0,34.1-9.06,64.72-23.44,85.75Z"/><text class="cls-5" transform="translate(18.08 32.57)">RE<tspan class="cls-6" x="9.47" y="0">S</tspan><tspan class="cls-7" x="14.48" y="0">E</tspan><tspan class="cls-8" x="19.22" y="0">A</tspan><tspan class="cls-9" x="24.31" y="0">R</tspan><tspan class="cls-10" x="29.21" y="0">C</tspan><tspan class="cls-11" x="34.33" y="0">H</tspan></text><text class="cls-5" transform="translate(18.08 67.39)">RE<tspan class="cls-6" x="9.47" y="0">S</tspan><tspan class="cls-7" x="14.48" y="0">E</tspan><tspan class="cls-8" x="19.22" y="0">A</tspan><tspan class="cls-9" x="24.31" y="0">R</tspan><tspan class="cls-10" x="29.21" y="0">C</tspan><tspan class="cls-11" x="34.33" y="0">H</tspan></text><text class="cls-12" transform="translate(17.23 102.58)"><tspan class="cls-13">RE</tspan><tspan class="cls-14" x="9.47" y="0">S</tspan><tspan class="cls-7" x="14.47" y="0">E</tspan><tspan class="cls-8" x="19.21" y="0">A</tspan><tspan class="cls-9" x="24.3" y="0">R</tspan><tspan class="cls-15" x="29.2" y="0">C</tspan><tspan x="34.32" y="0">H</tspan></text><text class="cls-12" transform="translate(17.08 138)"><tspan class="cls-13">RE</tspan><tspan class="cls-14" x="9.47" y="0">S</tspan><tspan class="cls-7" x="14.47" y="0">E</tspan><tspan class="cls-8" x="19.21" y="0">A</tspan><tspan class="cls-9" x="24.3" y="0">R</tspan><tspan class="cls-15" x="29.2" y="0">C</tspan><tspan x="34.32" y="0">H</tspan></text><text class="cls-12" transform="translate(17.23 173.58)"><tspan class="cls-13">RE</tspan><tspan class="cls-14" x="9.47" y="0">S</tspan><tspan class="cls-7" x="14.47" y="0">E</tspan><tspan class="cls-8" x="19.21" y="0">A</tspan><tspan class="cls-9" x="24.3" y="0">R</tspan><tspan class="cls-15" x="29.2" y="0">C</tspan><tspan x="34.32" y="0">H</tspan></text><text class="cls-12" transform="translate(309.9 102.73)"><tspan class="cls-13">I</tspan><tspan class="cls-16" x="2.5" y="0">N</tspan><tspan class="cls-10" x="7.87" y="0">S</tspan><tspan class="cls-17" x="12.87" y="0">I</tspan><tspan class="cls-10" x="15.37" y="0">G</tspan><tspan class="cls-18" x="20.66" y="0">H</tspan><tspan x="25.93" y="0">T</tspan></text></svg>