<svg xmlns="http://www.w3.org/2000/svg" viewBox="0 0 9600.28 4319.78"><defs><style>.cls-1{fill:#faa61c;}.cls-2,.cls-3,.cls-4,.cls-5,.cls-6,.cls-7{fill:none;stroke-miterlimit:10;stroke-width:7px;}.cls-2,.cls-3,.cls-5,.cls-6,.cls-7{stroke:#000;}.cls-3{stroke-dasharray:11.96 29.89;}.cls-4{stroke:#fff;}.cls-5{stroke-dasharray:11.96 29.9;}.cls-6{stroke-dasharray:12.02 30.05;}.cls-7{stroke-dasharray:11.95 29.89;}.cls-8{fill:#202020;}</style></defs><title>design-next</title><g id="Layer_1" data-name="Layer 1"><path class="cls-1" d="M3698.55,2502.7c451.64,0,817.77-366.13,817.77-817.78s-366.13-817.77-817.77-817.77-817.78,366.13-817.78,817.77,366.13,817.78,817.78,817.78" transform="translate(-127.94 -469.51)"/><path class="cls-2" d="M949.21,2477.9c451.64,0,817.77-366.13,817.77-817.77S1400.85,842.35,949.21,842.35s-817.77,366.13-817.77,817.78S497.57,2477.9,949.21,2477.9" transform="translate(-127.94 -469.51)"/><path class="cls-2" d="M3656.72,2477.9c451.65,0,817.78-366.13,817.78-817.77s-366.13-817.78-817.78-817.78S2839,1208.48,2839,1660.13s366.13,817.77,817.77,817.77" transform="translate(-127.94 -469.51)"/><path class="cls-2" d="M1404.18,2454l2.72,5.35" transform="translate(-127.94 -469.51)"/><path class="cls-3" d="M1420.54,2486a4251.94,4251.94,0,0,0,252.76,425.59C2433.61,4037,3718.68,4778.71,5177.41,4785.75" transform="translate(-127.94 -469.51)"/><path class="cls-2" d="M5192.36,4785.79h6" transform="translate(-127.94 -469.51)"/><path class="cls-4" d="M4766.36-3623.48" transform="translate(-127.94 -469.51)"/><path class="cls-2" d="M5198.36,4785.8h6" transform="translate(-127.94 -469.51)"/><path class="cls-5" d="M5234.26,4785.65c1511.49-12.5,2834.92-813.83,3578.78-2012.47q25-40.3,49.14-81.2" transform="translate(-127.94 -469.51)"/><path class="cls-2" d="M8869.76,2679.1l3-5.19" transform="translate(-127.94 -469.51)"/><path class="cls-2" d="M3755.87,2565.85l3.27,5" transform="translate(-127.94 -469.51)"/><path class="cls-6" d="M3775.65,2596C4301.16,3386,5197,3908.54,6215.35,3915.64" transform="translate(-127.94 -469.51)"/><path class="cls-2" d="M6230.38,3915.71h6" transform="translate(-127.94 -469.51)"/><path class="cls-2" d="M6236.38,3915.72h6" transform="translate(-127.94 -469.51)"/><path class="cls-7" d="M6272.26,3915.5c982.06-11.69,1848.82-502.73,2377.18-1250" transform="translate(-127.94 -469.51)"/><path class="cls-2" d="M8658,2653.26l3.44-4.92" transform="translate(-127.94 -469.51)"/><polygon points="821.27 1273.86 875.62 1215.41 766.92 1215.41 821.27 1273.86"/><polygon points="821.27 1569.71 875.62 1511.25 766.92 1511.25 821.27 1569.71"/><polygon points="3528.79 1273.86 3583.14 1215.41 3474.44 1215.41 3528.79 1273.86"/><polygon points="3528.79 1569.71 3583.14 1511.25 3474.44 1511.25 3528.79 1569.71"/><path class="cls-2" d="M8323.94,822C8176.05,611,7931,473,7653.8,473c-273.86,0-516.27,134.62-664.69,341.29" transform="translate(-127.94 -469.51)"/><polygon points="8210.21 390.68 8245.75 322.54 8136.61 354.66 8210.21 390.68"/><path class="cls-2" d="M7038.87,2644.46c147.89,211,392.9,349,670.13,349,273.86,0,516.28-134.62,664.69-341.29" transform="translate(-127.94 -469.51)"/><polygon points="6896.72 2136.74 6861.17 2204.87 6970.32 2172.76 6896.72 2136.74"/><polygon points="3618.13 2065.64 3582.59 2133.78 3691.73 2101.66 3618.13 2065.64"/><polygon points="1272.6 1957.67 1237.06 2025.8 1346.2 1993.69 1272.6 1957.67"/><path d="M440.67,1349l.1-116.29,35.78,0a54.41,54.41,0,0,1,27.43,6.93,48.24,48.24,0,0,1,18.87,19.67,60.7,60.7,0,0,1,6.76,29v5.35q0,16.21-6.7,28.82A47.73,47.73,0,0,1,504.09,1342a54.69,54.69,0,0,1-27.4,7Zm24-96.86-.07,77.63h11.58q14.05,0,21.5-9.17t7.61-26.27v-6.15q0-17.73-7.32-26.88t-21.48-9.16Z" transform="translate(-127.94 -469.51)"/><path d="M605.16,1349.13l-24,0,.1-116.29,24,0Z" transform="translate(-127.94 -469.51)"/><path d="M720.4,1318.72q0-6.78-4.78-10.42t-17.24-7.69a122.26,122.26,0,0,1-19.73-8q-19.78-10.73-19.78-28.85A28.11,28.11,0,0,1,664.2,1247q5.31-7.38,15.26-11.53a57.44,57.44,0,0,1,22.33-4.13,52.34,52.34,0,0,1,22.2,4.53,35.41,35.41,0,0,1,15.12,12.76,33.34,33.34,0,0,1,5.38,18.69l-24,0q0-8-5-12.43t-14.14-4.44q-8.77,0-13.66,3.7a11.74,11.74,0,0,0-4.88,9.78q0,5.67,5.71,9.51t16.8,7.2q20.45,6.18,29.78,15.28a30.39,30.39,0,0,1,9.32,22.69q0,15.11-11.44,23.67t-30.76,8.56a59.24,59.24,0,0,1-24.43-4.93q-11-4.92-16.8-13.47a34.41,34.41,0,0,1-5.77-19.81l24,0q0,19.25,23,19.26,8.55,0,13.34-3.46A11.27,11.27,0,0,0,720.4,1318.72Z" transform="translate(-127.94 -469.51)"/><path d="M884.66,1310.64q-1.36,18.77-13.88,29.54t-32.95,10.75q-22.37,0-35.17-15.08t-12.78-41.35v-7.1q0-16.79,5.94-29.55a44.27,44.27,0,0,1,16.91-19.59q11-6.83,25.52-6.81,20.13,0,32.42,10.81t14.19,30.28l-24,0q-.87-11.26-6.26-16.34t-16.41-5.08q-12,0-17.93,8.57t-6.14,26.63v8.78q0,18.86,5.68,27.56t18,8.72q11.1,0,16.58-5t6.28-15.69Z" transform="translate(-127.94 -469.51)"/><path d="M1028.65,1294q0,17.17-6.1,30.11a45.69,45.69,0,0,1-17.39,20,51.28,51.28,0,0,1-51.71,0,46,46,0,0,1-17.55-19.86q-6.23-12.9-6.29-29.67v-5.75q0-17.17,6.21-30.23a46.11,46.11,0,0,1,17.51-20,51.22,51.22,0,0,1,51.68,0,46,46,0,0,1,17.47,20.06q6.18,13.06,6.16,30.15Zm-24.28-5.29q0-18.29-6.52-27.8t-18.68-9.52q-12.06,0-18.62,9.37t-6.65,27.51v5.67q0,17.8,6.53,27.64t18.84,9.84q12.06,0,18.53-9.45t6.58-27.59Z" transform="translate(-127.94 -469.51)"/><path d="M1120,1320.75l26.43-87.43,26.68,0-40.6,116.25-25,0-40.23-116.32,26.59,0Z" transform="translate(-127.94 -469.51)"/><path d="M1286.63,1299.33l-46,0,0,31.15,54,0,0,19.24-78-.06.1-116.29,77.8.07,0,19.41-53.83,0,0,27.71,46,0Z" transform="translate(-127.94 -469.51)"/><path d="M1384.43,1307.24h-19.09l0,42.57-24,0,.11-116.29,43.2,0q20.61,0,31.78,9.21t11.16,26q0,11.89-5.17,19.84t-15.62,12.64l25.11,47.55v1.11l-25.71,0Zm-19.07-19.42,19.33,0q9,0,14-4.58t5-12.66q0-8.22-4.66-12.94t-14.33-4.73h-19.25Z" transform="translate(-127.94 -469.51)"/><path d="M3282.24,1349.43V1233.15H3318a54.43,54.43,0,0,1,27.44,6.9,48.21,48.21,0,0,1,18.88,19.65q6.79,12.73,6.79,29V1294q0,16.21-6.67,28.84a47.71,47.71,0,0,1-18.8,19.56,54.67,54.67,0,0,1-27.4,7Zm24-96.88v77.63h11.58q14.05,0,21.49-9.18t7.58-26.28v-6.15q0-17.73-7.34-26.87t-21.49-9.15Z" transform="translate(-127.94 -469.51)"/><path d="M3491.22,1299h-46v31.14h54v19.25h-77.95V1233.15h77.79v19.4h-53.83v27.72h46Z" transform="translate(-127.94 -469.51)"/><path d="M3606.28,1318.92q0-6.78-4.79-10.42t-17.26-7.67a121.37,121.37,0,0,1-19.72-7.94q-19.82-10.71-19.81-28.84a28.1,28.1,0,0,1,5.31-16.81q5.31-7.38,15.26-11.54a57.39,57.39,0,0,1,22.32-4.15,52.19,52.19,0,0,1,22.2,4.51,35.42,35.42,0,0,1,15.14,12.74,33.35,33.35,0,0,1,5.39,18.69h-24q0-8-5-12.42t-14.14-4.43q-8.79,0-13.66,3.71a11.71,11.71,0,0,0-4.87,9.78c0,3.79,1.9,6.95,5.71,9.51s9.41,4.95,16.81,7.19q20.45,6.15,29.79,15.25a30.38,30.38,0,0,1,9.35,22.68q0,15.1-11.42,23.68t-30.75,8.59a59.44,59.44,0,0,1-24.44-4.91q-11-4.92-16.81-13.46a34.48,34.48,0,0,1-5.79-19.81h24q0,19.26,23,19.25,8.55,0,13.34-3.47A11.32,11.32,0,0,0,3606.28,1318.92Z" transform="translate(-127.94 -469.51)"/><path d="M3704.72,1349.43h-24V1233.15h24Z" transform="translate(-127.94 -469.51)"/><path d="M3851.65,1334.74q-6.48,7.74-18.29,12a76.84,76.84,0,0,1-26.2,4.27q-15.09,0-26.48-6.59a44,44,0,0,1-17.57-19.13q-6.18-12.54-6.35-29.47v-7.91q0-17.4,5.87-30.15a43.44,43.44,0,0,1,16.94-19.48q11.05-6.75,25.91-6.75,20.68,0,32.35,9.86t13.82,28.71h-23.33q-1.59-10-7.06-14.61t-15.06-4.63q-12.21,0-18.61,9.18t-6.47,27.32v7.42q0,18.3,7,27.64t20.37,9.34q13.5,0,19.25-5.75v-20h-21.81v-17.65h45.77Z" transform="translate(-127.94 -469.51)"/><path d="M3998.33,1349.43h-24l-46.64-76.51v76.51h-24V1233.15h24l46.72,76.67v-76.67h23.88Z" transform="translate(-127.94 -469.51)"/><path class="cls-2" d="M8907,2477.9c451.64,0,817.77-366.13,817.77-817.77S9358.59,842.35,8907,842.35s-817.77,366.13-817.77,817.78S8455.31,2477.9,8907,2477.9" transform="translate(-127.94 -469.51)"/><polygon points="8779.01 1273.86 8833.36 1215.41 8724.66 1215.41 8779.01 1273.86"/><polygon points="8779.01 1569.71 8833.36 1511.25 8724.66 1511.25 8779.01 1569.71"/><path d="M8503.82,1233.15l29.87,84.34,29.71-84.34h31.47v116.28h-24v-31.78l2.4-54.87-31.39,86.65h-16.45l-31.31-86.57,2.39,54.79v31.78h-24V1233.15Z" transform="translate(-127.94 -469.51)"/><path d="M8718.47,1299h-46v31.14h54v19.25h-77.95V1233.15h77.79v19.4h-53.83v27.72h46Z" transform="translate(-127.94 -469.51)"/><path d="M8838.88,1325.47h-42l-8,24h-25.47l43.28-116.28h22.21l43.53,116.28H8847Zm-35.54-19.41h29.07l-14.61-43.52Z" transform="translate(-127.94 -469.51)"/><path d="M8976.3,1318.92q0-6.78-4.79-10.42t-17.25-7.67a121.53,121.53,0,0,1-19.73-7.94q-19.82-10.71-19.81-28.84a28.1,28.1,0,0,1,5.31-16.81q5.31-7.38,15.26-11.54a57.39,57.39,0,0,1,22.32-4.15,52.19,52.19,0,0,1,22.2,4.51A35.36,35.36,0,0,1,8995,1248.8a33.35,33.35,0,0,1,5.39,18.69h-24q0-8-5-12.42t-14.14-4.43q-8.79,0-13.66,3.71a11.74,11.74,0,0,0-4.87,9.78c0,3.79,1.91,6.95,5.71,9.51s9.41,4.95,16.82,7.19q20.45,6.15,29.79,15.25a30.37,30.37,0,0,1,9.34,22.68q0,15.1-11.42,23.68t-30.75,8.59a59.48,59.48,0,0,1-24.44-4.91q-11-4.92-16.81-13.46a34.48,34.48,0,0,1-5.79-19.81h24q0,19.26,23,19.25,8.55,0,13.34-3.47A11.32,11.32,0,0,0,8976.3,1318.92Z" transform="translate(-127.94 -469.51)"/><path d="M9137.28,1233.15v76.59q0,19.08-11.94,30.19t-32.63,11.1q-20.35,0-32.34-10.78t-12.22-29.63v-77.47h24v76.75q0,11.41,5.47,16.65t15.13,5.23q20.22,0,20.53-21.24v-77.39Z" transform="translate(-127.94 -469.51)"/><path d="M9232.69,1306.86H9213.6v42.57h-24V1233.15h43.21q20.61,0,31.79,9.18t11.18,26q0,11.89-5.15,19.84t-15.62,12.66l25.16,47.52v1.12H9254.5Zm-19.09-19.4h19.33q9,0,14-4.6t5-12.66q0-8.22-4.67-12.93t-14.34-4.72H9213.6Z" transform="translate(-127.94 -469.51)"/><path d="M9396.71,1299h-46v31.14h54v19.25h-78V1233.15h77.79v19.4H9350.7v27.72h46Z" transform="translate(-127.94 -469.51)"/><path d="M8575.06,1591.75h-45.24v43.88H8516.4v-99.21H8582V1547h-52.19v34.21h45.24Z" transform="translate(-127.94 -469.51)"/><path d="M8670.51,1589.64h-45.44v35.43h52.39v10.56h-65.82v-99.21h65.07V1547h-51.64v32.09h45.44Z" transform="translate(-127.94 -469.51)"/><path d="M8766,1589.64h-45.45v35.43H8773v10.56h-65.82v-99.21h65.07V1547h-51.65v32.09H8766Z" transform="translate(-127.94 -469.51)"/><path d="M8802.68,1635.63v-99.21h30.45q19.49,0,31.28,12t11.79,30.9v13.56q0,19-11.79,30.9t-31.28,11.89ZM8816.1,1547v78.09h17q13.77,0,21.71-9.06t7.93-23.21v-13.69q0-14-7.93-23.07t-21.71-9.06Z" transform="translate(-127.94 -469.51)"/><path d="M8908.55,1635.63v-99.21h32.37q15.52,0,24.32,6.71t8.79,20.14a18.32,18.32,0,0,1-4.22,11.82,25.07,25.07,0,0,1-11.11,7.73,22.9,22.9,0,0,1,14.14,8.79,26,26,0,0,1,5.15,16q0,13.64-8.83,20.82t-24,7.19Zm13.42-57h21.74q7.5,0,12.2-4.12t4.7-11.49q0-8-5.08-12t-14.61-4h-19Zm0,10.56v35.91h23.24q9.14,0,14.24-4.52t5.11-12.79q0-8.68-4.26-13.64t-13.11-5Z" transform="translate(-127.94 -469.51)"/><path d="M9065.46,1610.08H9023.9l-9.41,25.55H9000.8l38.36-99.21h11.51l37.75,99.21h-13.69Zm-37.41-11.24h33.39l-16.35-45.18h-.41Z" transform="translate(-127.94 -469.51)"/><path d="M9186.12,1603.81l.14.41a29.91,29.91,0,0,1-9.81,23.4q-10.1,9.45-26.65,9.44-16.83,0-27.42-11.92t-10.6-30.26v-17.65q0-18.32,10.6-30.28t27.42-12q16.83,0,26.78,9t9.68,23.75l-.14.4h-12.88q0-10.42-6.13-16.49t-17.31-6.06a21.14,21.14,0,0,0-17.92,9.06q-6.67,9-6.67,22.46v17.77q0,13.54,6.67,22.6a21.14,21.14,0,0,0,17.92,9.06q11.18,0,17.31-6t6.13-16.66Z" transform="translate(-127.94 -469.51)"/><path d="M9243.35,1590.86h-11.59v44.77h-13.42v-99.21h13.42v43.88h10.36l35.5-43.88h14.85l.21.34-38.5,47.63,41.29,50.9-.2.34h-16Z" transform="translate(-127.94 -469.51)"/><path d="M8630,1887.66l-41.57-.17-9.5,25.52-13.7-.06,38.76-99.06,11.52,0,37.35,99.36-13.7,0Zm-37.37-11.39,33.39.13-16.17-45.24h-.41Z" transform="translate(-127.94 -469.51)"/><path d="M8755.45,1913.71l-13.42,0-47.46-76.92-.41.14-.31,76.58-13.42,0,.4-99.21,13.42.06,47.46,76.77.41-.13.31-76.45,13.42,0Z" transform="translate(-127.94 -469.51)"/><path d="M8849,1888.53l-41.57-.16-9.5,25.51-13.7-.05,38.76-99.06,11.52,0,37.35,99.36-13.7-.06Zm-37.37-11.39,33.39.14L8828.88,1832h-.41Z" transform="translate(-127.94 -469.51)"/><path d="M8912.93,1903.78l46.95.19,0,10.56-60.37-.24.4-99.21,13.42.05Z" transform="translate(-127.94 -469.51)"/><path d="M9000.36,1865.9l26.1-50.32,15.33.07-35.08,64.18-.14,34.89-13.36-.06.15-35.77-34-63.57,15.33.06Z" transform="translate(-127.94 -469.51)"/><path d="M9078.48,1904.44l55.47.22,0,10.57-70.6-.29,0-10,53.33-78.42-52.26-.21,0-10.56,67.6.27,0,9.6Z" transform="translate(-127.94 -469.51)"/><path d="M9225.45,1869.6l-45.45-.18-.14,35.43,52.4.21,0,10.56-65.83-.26.4-99.21,65.08.26-.05,10.56-51.65-.21-.13,32.09,45.45.19Z" transform="translate(-127.94 -469.51)"/><path d="M8580.88,2223.6h-13.49v-99.22h13.49Z" transform="translate(-127.94 -469.51)"/><path d="M8637.29,2124.38l31.62,80.61h.4l31.62-80.61h17.17v99.22h-13.42v-39.25L8706,2144l-.34-.07-32.16,79.66h-8.93l-32-79.45-.34.06,1.29,40.14v39.25h-13.42v-99.22Z" transform="translate(-127.94 -469.51)"/><path d="M8770.08,2183.8v39.8h-13.43v-99.22h38q15.87,0,24.66,8.18t8.79,21.53q0,13.56-8.79,21.64t-24.66,8.07Zm0-10.56h24.53q10.08,0,15.06-5.41a19.38,19.38,0,0,0,5-13.63,19.65,19.65,0,0,0-5-13.74q-5-5.52-15-5.51h-24.53Z" transform="translate(-127.94 -469.51)"/><path d="M8873.43,2180.6v43H8860v-99.15h35.91q16.27,0,24.87,7.23t8.58,21a22.52,22.52,0,0,1-4,13.29,27,27,0,0,1-11.62,9q8.17,2.67,11.75,8.62t3.58,14.76v9.33a31.1,31.1,0,0,0,1,8.31,12.43,12.43,0,0,0,3.55,6v1.64h-13.84a11.14,11.14,0,0,1-3.4-6.82,56.3,56.3,0,0,1-.75-9.27v-9.06q0-8-4.7-12.94t-12.61-4.91Zm0-10.56h21.12q11.39,0,16.39-4.32t5-13.16q0-8.37-4.87-12.95t-15.16-4.6h-22.49Z" transform="translate(-127.94 -469.51)"/><path d="M9041.52,2182.85q0,18.2-11.28,30.18T9001,2225q-17.37,0-28.24-12t-10.87-30.18V2165.2q0-18.12,10.87-30.19T9001,2123q18,0,29.27,12t11.28,30.22Zm-13.43-17.79q0-13.62-7.35-22.35T9001,2134q-11.71,0-18.7,8.72t-7,22.35v17.79q0,13.77,7,22.48t18.7,8.73q12.48,0,19.8-8.69t7.32-22.52Z" transform="translate(-127.94 -469.51)"/><path d="M9103.44,2198.93l2.25,7.84h.41l2.25-7.84,25.62-74.55h14.51l-36.86,99.22H9100.1l-36.86-99.22h14.58Z" transform="translate(-127.94 -469.51)"/><path d="M9235.07,2177.6h-45.45V2213H9242v10.57H9176.2v-99.22h65.07V2135h-51.65V2167h45.45Z" transform="translate(-127.94 -469.51)"/><path class="cls-2" d="M6440.79,2477.9c451.64,0,817.77-366.13,817.77-817.77s-366.13-817.78-817.77-817.78S5623,1208.48,5623,1660.13s366.13,817.77,817.77,817.77" transform="translate(-127.94 -469.51)"/><polygon points="6312.85 1273.86 6367.2 1215.41 6258.5 1215.41 6312.85 1273.86"/><polygon points="6312.85 1569.71 6367.2 1511.25 6258.5 1511.25 6312.85 1569.71"/><path d="M6017.72,1349.43V1233.15h35.78a54.4,54.4,0,0,1,27.44,6.9,48.23,48.23,0,0,1,18.89,19.65,60.65,60.65,0,0,1,6.79,29V1294q0,16.21-6.67,28.84a47.79,47.79,0,0,1-18.81,19.56,54.66,54.66,0,0,1-27.39,7Zm24-96.88v77.63h11.59q14.06,0,21.48-9.18t7.59-26.28v-6.15q0-17.73-7.35-26.87t-21.49-9.15Z" transform="translate(-127.94 -469.51)"/><path d="M6226.71,1299h-46v31.14h54v19.25h-77.95V1233.15h77.79v19.4H6180.7v27.72h46Z" transform="translate(-127.94 -469.51)"/><path d="M6305.42,1330.18h50.88v19.25h-74.84V1233.15h24Z" transform="translate(-127.94 -469.51)"/><path d="M6428.23,1349.43h-24V1233.15h24Z" transform="translate(-127.94 -469.51)"/><path d="M6526.11,1320.6l26.36-87.45h26.67l-40.49,116.28h-25l-40.33-116.28h26.6Z" transform="translate(-127.94 -469.51)"/><path d="M6692.76,1299h-46v31.14h54v19.25H6622.8V1233.15h77.79v19.4h-53.83v27.72h46Z" transform="translate(-127.94 -469.51)"/><path d="M6790.57,1306.86h-19.09v42.57h-24V1233.15h43.21q20.6,0,31.78,9.18t11.19,26q0,11.89-5.16,19.84t-15.61,12.66l25.16,47.52v1.12h-25.72Zm-19.09-19.4h19.33q9,0,14-4.6t5-12.66q0-8.22-4.68-12.93t-14.33-4.72h-19.25Z" transform="translate(-127.94 -469.51)"/><path d="M6186.67,1592.63v43h-13.42v-99.14h35.91q16.28,0,24.87,7.22t8.58,21a22.49,22.49,0,0,1-4,13.28,27,27,0,0,1-11.62,9q8.17,2.65,11.75,8.62t3.58,14.75v9.34a31.1,31.1,0,0,0,1,8.31,12.37,12.37,0,0,0,3.55,6v1.64h-13.84a11.11,11.11,0,0,1-3.4-6.81,56.3,56.3,0,0,1-.75-9.27v-9.06q0-8-4.71-13t-12.6-4.91Zm0-10.56h21.12q11.39,0,16.39-4.32t5-13.16q0-8.35-4.87-12.95t-15.16-4.59h-22.49Z" transform="translate(-127.94 -469.51)"/><path d="M6338.54,1589.64h-45.45v35.43h52.4v10.56h-65.82v-99.21h65.07V1547h-51.65v32.09h45.45Z" transform="translate(-127.94 -469.51)"/><path d="M6433.85,1591.75h-45.24v43.88h-13.43v-99.21h65.62V1547h-52.19v34.21h45.24Z" transform="translate(-127.94 -469.51)"/><path d="M6484.6,1635.63h-13.49v-99.21h13.49Z" transform="translate(-127.94 -469.51)"/><path d="M6598.86,1635.63h-13.43l-47.76-76.72-.41.13v76.59h-13.43v-99.21h13.43L6585,1613l.41-.14v-76.45h13.43Z" transform="translate(-127.94 -469.51)"/><path d="M6696.21,1589.64h-45.44v35.43h52.39v10.56h-65.82v-99.21h65.08V1547h-51.65v32.09h45.44Z" transform="translate(-127.94 -469.51)"/><path d="M6222.81,1913.45l.39-99.21,32.37.13q15.54.06,24.3,6.8t8.71,20.17a18.28,18.28,0,0,1-4.27,11.81,25.07,25.07,0,0,1-11.14,7.69,22.86,22.86,0,0,1,14.1,8.85,26,26,0,0,1,5.08,16q0,13.62-8.9,20.78t-24,7.09Zm13.61-46.42-.15,35.91,23.24.09q9.14,0,14.26-4.46t5.16-12.77q0-8.68-4.2-13.66t-13.1-5Zm0-10.56,21.74.08q7.48,0,12.21-4.07c3.14-2.73,4.73-6.56,4.75-11.46q0-8-5-12t-14.6-4l-18.94-.08Z" transform="translate(-127.94 -469.51)"/><path d="M6398.85,1814.94l-.27,67.25q-.06,16.21-10.62,24.76t-27.53,8.48q-16.35-.08-26.51-8.73t-10.08-24.81l.27-67.25,13.42,0-.27,67.21q0,11.22,6.34,17.08t16.87,5.89q11,0,17.84-5.75t6.85-17l.27-67.21Z" transform="translate(-127.94 -469.51)"/><path d="M6448.52,1914.35l-13.49-.06.4-99.2,13.49.05Z" transform="translate(-127.94 -469.51)"/><path d="M6501.22,1904l46.95.19,0,10.56-60.37-.24.39-99.21,13.43,0Z" transform="translate(-127.94 -469.51)"/><path d="M6577.07,1914.86l.4-99.21,30.46.13q19.48.08,31.23,12.08t11.66,31l0,13.56q-.08,19-11.91,30.85T6607.53,1915Zm13.78-88.59-.31,78.09,17,.06q13.77.06,21.74-9t8-23.19l.06-13.68q.06-14-7.85-23.11t-21.66-9.14Z" transform="translate(-127.94 -469.51)"/><path d="M6008.51,2223.6H5995v-99.22h13.49Z" transform="translate(-127.94 -469.51)"/><path d="M6064.91,2124.38l31.62,80.61h.41l31.61-80.61h17.18v99.22H6132.3v-39.25l1.37-40.34-.35-.07-32.16,79.66h-8.92l-32-79.45-.34.06,1.3,40.14v39.25h-13.43v-99.22Z" transform="translate(-127.94 -469.51)"/><path d="M6197.7,2183.8v39.8h-13.42v-99.22h37.95q15.89,0,24.67,8.18t8.79,21.53q0,13.56-8.79,21.64t-24.67,8.07Zm0-10.56h24.53q10.08,0,15.06-5.41a19.33,19.33,0,0,0,5-13.63,19.64,19.64,0,0,0-5-13.74q-5-5.52-15-5.51H6197.7Z" transform="translate(-127.94 -469.51)"/><path d="M6301.06,2213H6348v10.57h-60.37v-99.22h13.43Z" transform="translate(-127.94 -469.51)"/><path d="M6435.82,2177.6h-45.45V2213h52.4v10.57H6377v-99.22H6442V2135h-51.65V2167h45.45Z" transform="translate(-127.94 -469.51)"/><path d="M6489.64,2124.38l31.61,80.61h.41l31.62-80.61h17.17v99.22H6557v-39.25l1.36-40.34-.34-.07-32.16,79.66H6517l-32-79.45-.35.06,1.3,40.14v39.25h-13.42v-99.22Z" transform="translate(-127.94 -469.51)"/><path d="M6667.88,2177.6h-45.45V2213h52.4v10.57H6609v-99.22h65.08V2135h-51.65V2167h45.45Z" transform="translate(-127.94 -469.51)"/><path d="M6779.54,2223.6h-13.42l-47.77-76.73-.41.14v76.59h-13.42v-99.22h13.42l47.77,76.59.41-.13v-76.46h13.42Z" transform="translate(-127.94 -469.51)"/><path d="M6883.24,2135h-31.89v88.65h-13.43V2135H6806.1v-10.57h77.14Z" transform="translate(-127.94 -469.51)"/><path d="M3408,1635.63H3394.5v-99.21H3408Z" transform="translate(-127.94 -469.51)"/><path d="M3447.22,1635.63v-99.21h30.46q19.49,0,31.28,12t11.78,30.9v13.56q0,19-11.78,30.9t-31.28,11.89Zm13.43-88.65v78.09h17q13.77,0,21.7-9.06t7.94-23.21v-13.69q0-14-7.94-23.07t-21.7-9.06Z" transform="translate(-127.94 -469.51)"/><path d="M3612,1589.64h-45.45v35.43h52.4v10.56H3553.1v-99.21h65.07V1547h-51.65v32.09H3612Z" transform="translate(-127.94 -469.51)"/><path d="M3702.38,1610.08h-41.57l-9.4,25.55h-13.7l38.36-99.21h11.52l37.75,99.21h-13.7ZM3665,1598.84h33.39L3682,1553.66h-.41Z" transform="translate(-127.94 -469.51)"/><path d="M3820.11,1547h-31.89v88.65h-13.43V1547H3743v-10.56h77.14Z" transform="translate(-127.94 -469.51)"/><path d="M3907.52,1589.64h-45.45v35.43h52.4v10.56h-65.83v-99.21h65.08V1547h-51.65v32.09h45.45Z" transform="translate(-127.94 -469.51)"/><path d="M3226,1872.8l-.15,39.79-13.43,0,.4-99.21,37.95.15q15.87.06,24.63,8.28t8.71,21.56q-.06,13.56-8.88,21.6t-24.7,8Zm.05-10.56,24.53.1q10.08,0,15.08-5.35a19.4,19.4,0,0,0,5-13.62,19.66,19.66,0,0,0-5-13.76q-5-5.52-15-5.57l-24.53-.09Z" transform="translate(-127.94 -469.51)"/><path d="M3329.35,1870l-.17,43-13.43-.06.4-99.14,35.91.15q16.29.06,24.84,7.32t8.5,21a22.41,22.41,0,0,1-4,13.27,27,27,0,0,1-11.65,9q8.16,2.68,11.72,8.66T3385,1888l0,9.34a31.2,31.2,0,0,0,1,8.31,12.38,12.38,0,0,0,3.52,6v1.64l-13.83-.06a11.1,11.1,0,0,1-3.38-6.83,56.25,56.25,0,0,1-.71-9.27l0-9.06q0-8-4.65-13t-12.58-5Zm0-10.56,21.12.08q11.38.06,16.41-4.25t5.06-13.14q0-8.36-4.82-13t-15.14-4.65l-22.49-.09Z" transform="translate(-127.94 -469.51)"/><path d="M3497.42,1872.93q-.06,18.19-11.39,30.14T3456.71,1915q-17.37-.08-28.19-12.11t-10.75-30.23l.07-17.64q.07-18.13,11-30.15t28.29-11.94q18,.06,29.22,12.14t11.16,30.26Zm-13.35-17.84q.06-13.62-7.27-22.37t-19.72-8.81q-11.73,0-18.74,8.65t-7.07,22.32l-.08,17.79q0,13.75,6.9,22.51t18.67,8.8q12.47,0,19.83-8.61t7.41-22.49Z" transform="translate(-127.94 -469.51)"/><path d="M3597,1825.43l-31.89-.13-.35,88.65-13.43,0,.36-88.65-31.82-.13,0-10.56,77.13.31Z" transform="translate(-127.94 -469.51)"/><path d="M3698.47,1873.74q-.06,18.19-11.39,30.14t-29.32,11.87q-17.37-.06-28.19-12.1t-10.75-30.23l.07-17.65q.08-18.12,11-30.14t28.29-12q18,.08,29.22,12.14t11.15,30.27Zm-13.35-17.84q.06-13.64-7.27-22.38t-19.72-8.8q-11.73,0-18.74,8.65t-7.08,22.32l-.07,17.78q0,13.77,6.9,22.51t18.67,8.8q12.46.06,19.83-8.61t7.41-22.49Z" transform="translate(-127.94 -469.51)"/><path d="M3798,1826.23l-31.89-.12-.36,88.64-13.42,0,.36-88.65-31.82-.13,0-10.56,77.13.31Z" transform="translate(-127.94 -469.51)"/><path d="M3857.79,1866.33l26.09-50.32,15.33.07-35.07,64.18-.14,34.89-13.36-.06.15-35.77-34-63.57,15.34.06Z" transform="translate(-127.94 -469.51)"/><path d="M3940,1875.66l-.16,39.79-13.42,0,.39-99.21,38,.15q15.87.06,24.63,8.27t8.7,21.57q0,13.56-8.87,21.6t-24.7,8Zm0-10.57,24.53.1q10.08,0,15.08-5.34a19.38,19.38,0,0,0,5-13.62,19.69,19.69,0,0,0-4.95-13.76q-5-5.54-15-5.57l-24.53-.1Z" transform="translate(-127.94 -469.51)"/><path d="M4088.81,1870.05l-45.45-.18-.14,35.43,52.39.21,0,10.56-65.82-.26.4-99.21,65.07.26,0,10.56-51.65-.21-.13,32.1,45.45.18Z" transform="translate(-127.94 -469.51)"/><path d="M3542.21,2135h-31.89v88.65H3496.9V2135h-31.83v-10.57h77.14Z" transform="translate(-127.94 -469.51)"/><path d="M3629.62,2177.6h-45.45V2213h52.4v10.57h-65.83v-99.22h65.08V2135h-51.65V2167h45.45Z" transform="translate(-127.94 -469.51)"/><path d="M3720.3,2198.61a14.63,14.63,0,0,0-5.11-11.34q-5.11-4.58-18.13-7.69-15.73-3.76-24.56-11.07a22.85,22.85,0,0,1-8.83-18.37q0-11.61,9.51-19.4t24.63-7.79q16.29,0,25.93,8.93t9.3,20.71l-.14.41h-12.81q0-8.72-5.76-14.1t-16.52-5.38q-10,0-15.36,4.53a14.74,14.74,0,0,0-5.35,11.82c0,4.32,1.93,7.91,5.79,10.8s10.13,5.42,18.8,7.6q15.67,3.89,23.85,11.44a24.52,24.52,0,0,1,8.18,18.74,22.85,22.85,0,0,1-9.81,19.28q-9.81,7.3-25.62,7.3A44.36,44.36,0,0,1,3672,2217q-11.42-8.07-11.07-21.56l.13-.41h12.81q0,9.54,7,14.51t17.38,5q10.15,0,16.08-4.26A13.55,13.55,0,0,0,3720.3,2198.61Z" transform="translate(-127.94 -469.51)"/><path d="M3834.42,2135h-31.89v88.65H3789.1V2135h-31.82v-10.57h77.14Z" transform="translate(-127.94 -469.51)"/><path d="M562.41,1592.63v43H549v-99.14h35.91q16.29,0,24.87,7.22t8.59,21a22.43,22.43,0,0,1-4,13.28,27,27,0,0,1-11.62,9q8.18,2.65,11.76,8.62t3.57,14.75v9.34a31.08,31.08,0,0,0,1,8.31,12.43,12.43,0,0,0,3.54,6v1.64H608.81a11.12,11.12,0,0,1-3.41-6.81,56.3,56.3,0,0,1-.75-9.27v-9.06q0-8-4.7-13t-12.61-4.91Zm0-10.56h21.12q11.37,0,16.39-4.32t5-13.16q0-8.35-4.87-12.95t-15.16-4.59H562.41Z" transform="translate(-127.94 -469.51)"/><path d="M714.27,1589.64H668.82v35.43h52.4v10.56H655.4v-99.21h65.07V1547H668.82v32.09h45.45Z" transform="translate(-127.94 -469.51)"/><path d="M805,1610.65a14.61,14.61,0,0,0-5.11-11.35q-5.1-4.58-18.12-7.69-15.75-3.75-24.57-11.06a22.9,22.9,0,0,1-8.82-18.38q0-11.61,9.5-19.39t24.64-7.79q16.28,0,25.92,8.92t9.31,20.72l-.14.41H804.75q0-8.73-5.76-14.11t-16.52-5.38q-10,0-15.37,4.53a14.74,14.74,0,0,0-5.35,11.82q0,6.48,5.79,10.8t18.81,7.6q15.67,3.89,23.85,11.45a24.5,24.5,0,0,1,8.18,18.74,22.86,22.86,0,0,1-9.82,19.28q-9.81,7.29-25.62,7.29a44.32,44.32,0,0,1-26.26-8.07q-11.41-8.09-11.08-21.57l.14-.41h12.81q0,9.54,7,14.52t17.37,5q10.15,0,16.08-4.27A13.5,13.5,0,0,0,805,1610.65Z" transform="translate(-127.94 -469.51)"/><path d="M910.76,1589.64H865.31v35.43h52.4v10.56H851.89v-99.21H917V1547H865.31v32.09h45.45Z" transform="translate(-127.94 -469.51)"/><path d="M1001.17,1610.08H959.6l-9.4,25.55H936.5l38.36-99.21h11.52l37.75,99.21h-13.7Zm-37.41-11.24h33.39l-16.36-45.18h-.41Z" transform="translate(-127.94 -469.51)"/><path d="M1065.13,1592.63v43h-13.42v-99.14h35.91q16.29,0,24.87,7.22t8.59,21a22.43,22.43,0,0,1-4,13.28,27,27,0,0,1-11.62,9q8.17,2.65,11.76,8.62t3.57,14.75v9.34a31.08,31.08,0,0,0,1,8.31,12.43,12.43,0,0,0,3.54,6v1.64h-13.83a11.12,11.12,0,0,1-3.41-6.81,56.3,56.3,0,0,1-.75-9.27v-9.06q0-8-4.7-13t-12.61-4.91Zm0-10.56h21.13q11.37,0,16.39-4.32t5-13.16q0-8.35-4.87-12.95t-15.16-4.59h-22.49Z" transform="translate(-127.94 -469.51)"/><path d="M1228.25,1603.81l.13.41a29.91,29.91,0,0,1-9.81,23.4q-10.08,9.45-26.64,9.44-16.83,0-27.43-11.92t-10.59-30.26v-17.65q0-18.32,10.59-30.28t27.43-12q16.83,0,26.78,9t9.67,23.75l-.13.4h-12.88q0-10.42-6.13-16.49t-17.31-6.06a21.13,21.13,0,0,0-17.92,9.06q-6.67,9-6.68,22.46v17.77q0,13.54,6.68,22.6a21.13,21.13,0,0,0,17.92,9.06q11.17,0,17.31-6t6.13-16.66Z" transform="translate(-127.94 -469.51)"/><path d="M1335.48,1635.63h-13.42v-43.81h-48.17v43.81h-13.43v-99.21h13.43v44.84h48.17v-44.84h13.42Z" transform="translate(-127.94 -469.51)"/><path d="M533.64,1887.67a14.62,14.62,0,0,0-5.07-11.36q-5.09-4.61-18.09-7.77-15.74-3.81-24.52-11.16a22.86,22.86,0,0,1-8.75-18.41q0-11.61,9.58-19.36t24.66-7.69q16.29.07,25.89,9t9.22,20.75l-.14.41-12.81,0q0-8.71-5.7-14.13t-16.5-5.45q-10,0-15.38,4.47a14.76,14.76,0,0,0-5.4,11.81q0,6.46,5.75,10.82t18.77,7.67q15.66,3.95,23.81,11.54a24.52,24.52,0,0,1,8.1,18.77q0,12-9.89,19.25T511.52,1914a44.34,44.34,0,0,1-26.23-8.18q-11.39-8.13-11-21.61l.14-.41,12.81,0q0,9.54,7,14.54t17.35,5q10.16,0,16.1-4.2A13.55,13.55,0,0,0,533.64,1887.67Z" transform="translate(-127.94 -469.51)"/><path d="M611,1864.18l26.09-50.32,15.33.06-35.07,64.18L617.2,1913l-13.36,0,.14-35.78-34-63.57,15.33.06Z" transform="translate(-127.94 -469.51)"/><path d="M754.62,1913.54l-13.43-.06-47.45-76.91-.41.13-.31,76.59-13.42,0L680,1814l13.43,0,47.46,76.78.41-.13.3-76.45,13.42,0Z" transform="translate(-127.94 -469.51)"/><path d="M858.67,1825.31l-31.89-.13-.36,88.65-13.42-.06.35-88.65-31.82-.12,0-10.56,77.14.3Z" transform="translate(-127.94 -469.51)"/><path d="M961.87,1914.37l-13.43-.06.18-43.81-48.17-.19-.18,43.81-13.42,0,.39-99.21,13.43.05-.18,44.84,48.17.19.18-44.84,13.42.06Z" transform="translate(-127.94 -469.51)"/><path d="M1059.41,1868.76l-45.45-.18-.14,35.43,52.4.21,0,10.56-65.82-.26.4-99.21,65.07.26,0,10.56-51.65-.2L1014,1858l45.45.18Z" transform="translate(-127.94 -469.51)"/><path d="M1150,1890.14a14.61,14.61,0,0,0-5.06-11.37q-5.1-4.59-18.1-7.76-15.72-3.83-24.52-11.16a22.9,22.9,0,0,1-8.75-18.41q0-11.61,9.59-19.36t24.66-7.69q16.29.06,25.89,9t9.22,20.75l-.14.41-12.81,0q0-8.73-5.7-14.13t-16.5-5.45q-10,0-15.39,4.47a14.78,14.78,0,0,0-5.39,11.8q0,6.48,5.75,10.82t18.77,7.68q15.66,3.94,23.81,11.54a24.49,24.49,0,0,1,8.1,18.77,22.86,22.86,0,0,1-9.89,19.24q-9.84,7.26-25.65,7.19a44.3,44.3,0,0,1-26.24-8.18q-11.37-8.12-11-21.61l.14-.41,12.81.06q0,9.54,7,14.54t17.35,5q10.15,0,16.1-4.2A13.54,13.54,0,0,0,1150,1890.14Z" transform="translate(-127.94 -469.51)"/><path d="M1211,1915.36l-13.49,0,.39-99.21,13.5.05Z" transform="translate(-127.94 -469.51)"/><path d="M1259.76,1905l55.46.22,0,10.56-70.59-.28,0-10,53.32-78.42-52.26-.21,0-10.56,67.6.27,0,9.61Z" transform="translate(-127.94 -469.51)"/><path d="M1406.72,1870.15l-45.44-.18-.15,35.43,52.4.21,0,10.56-65.82-.26.4-99.21,65.07.26,0,10.56-51.65-.2-.13,32.09,45.45.18Z" transform="translate(-127.94 -469.51)"/><path d="M681.94,2223.6v-99.22H712.4q19.49,0,31.28,12t11.78,30.9v13.56q0,19-11.78,30.9t-31.28,11.9ZM695.36,2135V2213h17q13.76,0,21.7-9.05t7.94-23.22v-13.68q0-14-7.94-23.08T712.4,2135Z" transform="translate(-127.94 -469.51)"/><path d="M846.69,2177.6H801.24V2213h52.4v10.57H787.82v-99.22h65.07V2135H801.24V2167h45.45Z" transform="translate(-127.94 -469.51)"/><path d="M942,2179.71H896.76v43.89H883.33v-99.22H949V2135H896.76v34.2H942Z" transform="translate(-127.94 -469.51)"/><path d="M992.75,2223.6H979.26v-99.22h13.49Z" transform="translate(-127.94 -469.51)"/><path d="M1107,2223.6h-13.43l-47.76-76.73-.41.14v76.59H1032v-99.22h13.42l47.76,76.59.41-.13v-76.46H1107Z" transform="translate(-127.94 -469.51)"/><path d="M1204.36,2177.6h-45.44V2213h52.39v10.57h-65.82v-99.22h65.07V2135h-51.64V2167h45.44Z" transform="translate(-127.94 -469.51)"/><polygon class="cls-8" points="1825.38 1175.13 2519.27 1175.13 2519.27 1200.84 2551.32 1168.79 2519.27 1136.74 2519.27 1162.44 1825.38 1162.44 1825.38 1175.13"/><polygon class="cls-8" points="4572.63 1163.97 5266.52 1163.97 5266.52 1189.67 5298.57 1157.63 5266.52 1125.58 5266.52 1151.28 4572.63 1151.28 4572.63 1163.97"/></g></svg>