<svg id="Layer_1" data-name="Layer 1" xmlns="http://www.w3.org/2000/svg" viewBox="0 0 305.02 194.48"><defs><style>.cls-1,.cls-7{fill:#c8e3ed;}.cls-2{fill:#0273b8;}.cls-3,.cls-5,.cls-6{fill:none;}.cls-3,.cls-5{stroke:#0273b8;stroke-width:2px;}.cls-3{stroke-miterlimit:10;}.cls-4{fill:#0c73ba;}.cls-5{stroke-linecap:round;stroke-linejoin:round;}.cls-5,.cls-7{fill-rule:evenodd;}</style></defs><title>equipement</title><rect class="cls-1" x="18.95" y="31.51" width="49.78" height="14.87"/><path class="cls-2" d="M66.73,29.34V92H16.78V29.34h50m2-2H14.78V94h54V27.34Z"/><line class="cls-3" x1="16.37" y1="41.62" x2="67.15" y2="41.62"/><line class="cls-3" x1="22.71" y1="24.17" x2="22.71" y2="33.69"/><line class="cls-3" x1="51.28" y1="24.17" x2="51.28" y2="33.69"/><line class="cls-3" x1="41.76" y1="24.17" x2="41.76" y2="33.69"/><line class="cls-3" x1="32.23" y1="24.17" x2="32.23" y2="33.69"/><line class="cls-3" x1="60.8" y1="24.17" x2="60.8" y2="33.69"/><line class="cls-3" x1="24.3" y1="54.32" x2="40.17" y2="54.32"/><line class="cls-3" x1="24.3" y1="63.84" x2="57.62" y2="63.84"/><line class="cls-3" x1="24.3" y1="73.36" x2="57.62" y2="73.36"/><circle class="cls-1" cx="152.78" cy="162.16" r="15.19"/><path class="cls-2" d="M185,138.84v39H120.61v-39H185m2-2H118.61v43H187v-43Z"/><path class="cls-2" d="M152.78,143.9a14.46,14.46,0,1,1-14.45,14.46,14.47,14.47,0,0,1,14.45-14.46m0-2a16.46,16.46,0,1,0,16.46,16.46,16.46,16.46,0,0,0-16.46-16.46Z"/><path class="cls-2" d="M152.78,151.5a6.86,6.86,0,1,1-6.86,6.86,6.87,6.87,0,0,1,6.86-6.86m0-2a8.86,8.86,0,1,0,8.87,8.86,8.86,8.86,0,0,0-8.87-8.86Z"/><path class="cls-2" d="M129.27,133.78v2.88h-6.13v-2.88h6.13m2-2H121.14v6.88h10.13v-6.88Z"/><path class="cls-2" d="M160.67,131.25l4.2,5.41H140.7l4.2-5.41h15.77m1-2H143.92l-7.31,9.41H169l-7.31-9.41Z"/><line class="cls-3" x1="171.77" y1="143.17" x2="181.9" y2="143.17"/><rect class="cls-1" x="20.24" y="125.45" width="46.75" height="24.05"/><path class="cls-2" d="M66.34,122.39v64.35H17.17V122.39H66.34m2-2H15.17v68.35H68.34V120.39Z"/><line class="cls-3" x1="22.77" y1="154.56" x2="27.83" y2="154.56"/><line class="cls-3" x1="32.9" y1="154.56" x2="60.74" y2="154.56"/><line class="cls-3" x1="22.77" y1="162.16" x2="27.83" y2="162.16"/><line class="cls-3" x1="32.9" y1="162.16" x2="60.74" y2="162.16"/><line class="cls-3" x1="22.77" y1="169.75" x2="27.83" y2="169.75"/><line class="cls-3" x1="32.9" y1="169.75" x2="60.74" y2="169.75"/><line class="cls-3" x1="22.77" y1="177.35" x2="27.83" y2="177.35"/><line class="cls-3" x1="32.9" y1="177.35" x2="60.74" y2="177.35"/><path class="cls-4" d="M39.65,134.3h-3V134c0-3.7,1.22-6,5-6s4.9,2.17,4.9,4.6c0,4.52-3.21,4.09-3.5,8.42H40.41c-.3-4.35,3.21-5.8,3.21-8.17,0-1.37-.43-2.23-1.9-2.23S39.65,131.84,39.65,134.3Z"/><rect class="cls-4" x="40.41" y="142.99" width="2.71" height="2.71"/><rect class="cls-1" x="233.87" y="71.04" width="40.51" height="15.19"/><path class="cls-2" d="M277.44,27.47V91.82H228.28V27.47h49.16m2-2H226.28V93.82h53.16V25.47Z"/><line class="cls-3" x1="233.87" y1="67.24" x2="271.85" y2="67.24"/><line class="cls-3" x1="233.87" y1="59.65" x2="271.85" y2="59.65"/><line class="cls-3" x1="233.87" y1="52.05" x2="271.85" y2="52.05"/><line class="cls-3" x1="233.87" y1="44.46" x2="271.85" y2="44.46"/><line class="cls-3" x1="233.87" y1="36.86" x2="244" y2="36.86"/><line class="cls-3" x1="236.41" y1="82.43" x2="271.85" y2="82.43"/><path class="cls-5" d="M245.27,76.63a4.49,4.49,0,0,1,3.21-1.81,6.44,6.44,0,0,1,3.39,1A8.44,8.44,0,0,0,256,77.06h11.06"/><path class="cls-1" d="M166.56,24.73H134a2.19,2.19,0,0,0-2.17,2.2V90.67a2.18,2.18,0,0,0,2.17,2.2h32.52a2.18,2.18,0,0,0,2.17-2.2V26.93A2.19,2.19,0,0,0,166.56,24.73ZM162,80.58H136.34V31.44H162Z"/><path class="cls-2" d="M164.78,22.27a3.07,3.07,0,0,1,3.07,3.06v63.6A3.07,3.07,0,0,1,164.78,92H132.46a3.07,3.07,0,0,1-3.06-3.06V25.33a3.06,3.06,0,0,1,3.06-3.06h32.32m0-2H132.46a5.07,5.07,0,0,0-5.06,5.06v63.6A5.08,5.08,0,0,0,132.46,94h32.32a5.08,5.08,0,0,0,5.07-5.06V25.33a5.07,5.07,0,0,0-5.07-5.06Z"/><path class="cls-2" d="M161.14,31.2V78.58h-25V31.2h25m2-2h-29V80.58h29V29.2Z"/><line class="cls-3" x1="141.92" y1="25.85" x2="153.09" y2="25.85"/><path class="cls-2" d="M148.62,42.37A1.35,1.35,0,0,1,150,43.72V54.89a1.35,1.35,0,0,1-2.7,0V43.72a1.36,1.36,0,0,1,1.35-1.35m0-2a3.35,3.35,0,0,0-3.35,3.35V54.89a3.35,3.35,0,0,0,6.7,0V43.72a3.35,3.35,0,0,0-3.35-3.35Z"/><path class="cls-6" d="M143,54.89a5.59,5.59,0,1,0,11.17,0V51.54H143Z"/><path class="cls-4" d="M154.21,51.54v3.35a5.59,5.59,0,1,1-11.17,0V51.54H140.8v3.35a7.82,7.82,0,1,0,15.64,0V51.54Z"/><line class="cls-3" x1="148.62" y1="61.84" x2="148.62" y2="66.06"/><line class="cls-3" x1="145.27" y1="66.06" x2="151.97" y2="66.06"/><path class="cls-2" d="M148.62,84.82a1.35,1.35,0,1,1-1.35,1.35,1.34,1.34,0,0,1,1.35-1.35m0-2A3.35,3.35,0,1,0,152,86.17a3.35,3.35,0,0,0-3.35-3.35Z"/><polygon class="cls-7" points="285.15 173.15 289.49 168.67 238.23 115.86 233.88 120.34 285.15 173.15"/><path class="cls-2" d="M240.83,114.26l49.35,50.83-5.9,6.08-49.35-50.83,5.9-6.08m0-2.87-8.69,9L284.28,174l8.69-8.95-52.14-53.7Z"/><line class="cls-3" x1="234.75" y1="114.07" x2="255.61" y2="135.56"/><line class="cls-3" x1="261.69" y1="134.66" x2="254.74" y2="141.82"/><polygon class="cls-1" points="230.41 131.08 225.79 135.84 222.31 132.25 226.93 127.5 230.41 131.08"/><polygon class="cls-1" points="263.19 176.07 263.74 177.94 265.16 179.41 270.36 181.22 264.75 174.47 263.19 176.07"/><polygon class="cls-1" points="266.9 174.04 263.43 177.62 219.98 132.87 223.46 129.29 266.9 174.04"/><path class="cls-2" d="M230.41,132.16l41.64,42.89,1.19,4.67-4.42-1.2-41.71-43,3.3-3.4m0-2.87-6.09,6.27,43.45,44.75,8.26,2.24L273.85,174l-43.44-44.75Z"/><path class="cls-2" d="M226.93,128.58l2.43,2.5-3.3,3.39-2.42-2.5,3.29-3.39m0-2.87L220.85,132l5.21,5.38,6.08-6.27-5.21-5.37Z"/><line class="cls-3" x1="268.64" y1="170.46" x2="264.28" y2="174.95"/></svg>