<svg id="Layer_1" data-name="Layer 1" xmlns="http://www.w3.org/2000/svg" xmlns:xlink="http://www.w3.org/1999/xlink" viewBox="0 0 316.2 312.54"><defs><style>.cls-1,.cls-4,.cls-5,.cls-7,.cls-8{fill:none;}.cls-2{clip-path:url(#clip-path);}.cls-3{fill:#fff;}.cls-4{stroke:#0573b7;stroke-width:1.79px;}.cls-4,.cls-5,.cls-7,.cls-8{stroke-miterlimit:10;}.cls-5,.cls-7{stroke:#000;}.cls-5{stroke-width:0.67px;}.cls-6{clip-path:url(#clip-path-2);}.cls-7{stroke-width:1.35px;}.cls-8{stroke:#fbb71d;stroke-width:0.9px;}.cls-9{fill:#fbb71d;}.cls-10{fill:#c8e3ed;}.cls-11,.cls-17{font-size:7px;}.cls-11,.cls-17,.cls-25,.cls-42{fill:#231f20;font-family:CooperHewitt-Medium, Cooper Hewitt;font-weight:500;}.cls-12{letter-spacing:0.12em;}.cls-13{letter-spacing:0.12em;}.cls-14{letter-spacing:0.12em;}.cls-15{letter-spacing:0.14em;}.cls-16{letter-spacing:0.13em;}.cls-17,.cls-30{letter-spacing:0.12em;}.cls-18{letter-spacing:0.12em;}.cls-19{letter-spacing:0.1em;}.cls-20{letter-spacing:0.12em;}.cls-21{letter-spacing:0.12em;}.cls-22{letter-spacing:0.13em;}.cls-23{letter-spacing:0.12em;}.cls-24{letter-spacing:0em;}.cls-25,.cls-42{font-size:6px;}.cls-25{letter-spacing:0.09em;}.cls-26{letter-spacing:0.13em;}.cls-27{letter-spacing:0.13em;}.cls-28{letter-spacing:0.13em;}.cls-29{letter-spacing:0.13em;}.cls-31{letter-spacing:0.13em;}.cls-32{letter-spacing:0.13em;}.cls-33{letter-spacing:0.1em;}.cls-34{letter-spacing:0.1em;}.cls-35{letter-spacing:0.14em;}.cls-36{letter-spacing:0.12em;}.cls-37{letter-spacing:0.13em;}.cls-38{letter-spacing:0.13em;}.cls-39{letter-spacing:0.12em;}.cls-40{letter-spacing:0.12em;}.cls-41{letter-spacing:0em;}.cls-43{letter-spacing:0.13em;}.cls-44{letter-spacing:0.1em;}.cls-45{letter-spacing:0.12em;}.cls-46{letter-spacing:0.12em;}.cls-47{letter-spacing:0.12em;}.cls-48{letter-spacing:0.14em;}.cls-49{letter-spacing:0.13em;}.cls-50{letter-spacing:0.13em;}.cls-51{letter-spacing:0.12em;}.cls-52{letter-spacing:0.13em;}</style><clipPath id="clip-path"><rect class="cls-1" x="22.83" y="14.5" width="262.8" height="269.53"/></clipPath><clipPath id="clip-path-2"><rect class="cls-1" x="40.43" y="14.5" width="227.59" height="269.53"/></clipPath></defs><title>insights</title><g class="cls-2"><path class="cls-3" d="M149.33,203.48a66.42,66.42,0,1,1,66.42-66.42,66.42,66.42,0,0,1-66.42,66.42"/><circle class="cls-4" cx="149.33" cy="137.06" r="66.42"/><line class="cls-5" x1="149.33" y1="57.43" x2="149.33" y2="68.23"/><polygon points="147.66 67.74 149.33 70.64 151.01 67.74 147.66 67.74"/></g><g class="cls-6"><polyline class="cls-7" points="42.49 282.21 178.81 281.59 265.98 281.59"/><path d="M44.31,282.12a1.82,1.82,0,1,1-1.91-1.72,1.82,1.82,0,0,1,1.91,1.72"/></g><g class="cls-2"><path d="M268,281.59a1.82,1.82,0,1,1-1.82-1.82,1.81,1.81,0,0,1,1.82,1.82"/></g><g class="cls-6"><polyline class="cls-8" points="264.22 16.43 60.6 133.96 41.34 145.08 58.4 154.68 59.67 155.41 264.66 273.74"/><polygon class="cls-9" points="262.2 14.5 267.56 14.5 264.88 19.14 262.2 14.5"/></g><g class="cls-2"><polygon class="cls-9" points="262.64 275.67 268 275.67 265.32 271.02 262.64 275.67"/><path class="cls-10" d="M149.33,199.9c-1.93,0-3.92-.1-5.9-.28L98.14,173.47A62.28,62.28,0,0,1,86.5,137.06a63.37,63.37,0,0,1,1.8-15l78.62-45.38A62.84,62.84,0,0,1,149.33,199.9"/></g><text class="cls-11" transform="translate(250.73 296.29)"><tspan class="cls-12">G</tspan><tspan class="cls-13" x="5.45" y="0">E</tspan><tspan class="cls-14" x="10.18" y="0">N</tspan><tspan class="cls-13" x="15.7" y="0">E</tspan><tspan class="cls-15" x="20.43" y="0">R</tspan><tspan class="cls-16" x="25.56" y="0">A</tspan><tspan x="30.8" y="0">L</tspan></text><text class="cls-17" transform="translate(27.79 296.34)">S<tspan class="cls-18" x="5.15" y="0">P</tspan><tspan class="cls-19" x="10.09" y="0">E</tspan><tspan class="cls-20" x="14.72" y="0">C</tspan><tspan class="cls-21" x="19.98" y="0">I</tspan><tspan class="cls-22" x="22.54" y="0">F</tspan><tspan class="cls-23" x="27.1" y="0">I</tspan><tspan class="cls-24" x="29.68" y="0">C</tspan></text><text class="cls-25" transform="translate(70.69 47.37)">P<tspan class="cls-26" x="4.04" y="0">A</tspan><tspan class="cls-27" x="8.56" y="0">R</tspan><tspan class="cls-28" x="12.91" y="0">T</tspan><tspan class="cls-29" x="16.87" y="0">IC</tspan><tspan class="cls-30" x="23.64" y="0">I</tspan><tspan x="25.87" y="0">P</tspan><tspan class="cls-26" x="29.91" y="0">A</tspan><tspan class="cls-31" x="34.43" y="0">N</tspan><tspan class="cls-32" x="39.23" y="0">T</tspan><tspan class="cls-31" x="43.19" y="0">S</tspan><tspan class="cls-33" x="47.65" y="0">’</tspan><tspan class="cls-34" x="49.65" y="0"> </tspan><tspan class="cls-35" x="51.45" y="0">E</tspan><tspan class="cls-32" x="55.64" y="0">X</tspan><tspan class="cls-29" x="60.18" y="0">P</tspan><tspan class="cls-30" x="64.45" y="0">E</tspan><tspan class="cls-36" x="68.53" y="0">R</tspan><tspan class="cls-30" x="72.85" y="0">IE</tspan><tspan class="cls-37" x="79.16" y="0">N</tspan><tspan class="cls-38" x="83.93" y="0">C</tspan><tspan class="cls-39" x="88.48" y="0">E</tspan><tspan class="cls-40" x="92.55" y="0">S</tspan><tspan class="cls-41" x="96.95" y="0">, </tspan></text><text class="cls-42" transform="translate(70.69 56.37)"><tspan class="cls-29">P</tspan><tspan class="cls-30" x="4.27" y="0">E</tspan><tspan class="cls-22" x="8.35" y="0">R</tspan><tspan class="cls-38" x="12.7" y="0">C</tspan><tspan class="cls-30" x="17.24" y="0">E</tspan><tspan class="cls-43" x="21.32" y="0">P</tspan><tspan class="cls-28" x="25.64" y="0">T</tspan><tspan class="cls-29" x="29.6" y="0">I</tspan><tspan class="cls-38" x="31.84" y="0">ON</tspan><tspan class="cls-40" x="41.31" y="0">S</tspan><tspan class="cls-33" x="45.71" y="0">,</tspan><tspan class="cls-34" x="47.71" y="0" xml:space="preserve"> &amp;</tspan><tspan class="cls-44" x="54.13" y="0"> </tspan><tspan class="cls-45" x="55.93" y="0">I</tspan><tspan class="cls-38" x="58.15" y="0">M</tspan><tspan class="cls-46" x="63.88" y="0">P</tspan><tspan class="cls-47" x="68.14" y="0">R</tspan><tspan class="cls-39" x="72.46" y="0">E</tspan><tspan class="cls-48" x="76.54" y="0">S</tspan><tspan class="cls-22" x="81.02" y="0">S</tspan><tspan class="cls-49" x="85.44" y="0">I</tspan><tspan class="cls-50" x="87.68" y="0">ON</tspan><tspan x="97.15" y="0">S </tspan></text><text class="cls-11" transform="translate(134.22 143.61)"><tspan class="cls-51">I</tspan><tspan class="cls-12" x="2.56" y="0">NS</tspan><tspan class="cls-13" x="13.23" y="0">I</tspan><tspan class="cls-14" x="15.8" y="0">G</tspan><tspan class="cls-52" x="21.24" y="0">H</tspan><tspan class="cls-29" x="26.66" y="0">T</tspan><tspan x="31.25" y="0">S</tspan></text></svg>