<svg id="Layer_1" data-name="Layer 1" xmlns="http://www.w3.org/2000/svg" xmlns:xlink="http://www.w3.org/1999/xlink" viewBox="0 0 1920 1080"><defs><style>.cls-1,.cls-3,.cls-6,.cls-65{fill:none;}.cls-2{clip-path:url(#clip-path);}.cls-3,.cls-6{stroke:#231f20;}.cls-3,.cls-6,.cls-65{stroke-miterlimit:10;}.cls-3{stroke-width:7.91px;}.cls-10,.cls-16,.cls-20,.cls-22,.cls-30,.cls-4,.cls-47,.cls-51,.cls-59,.cls-60{fill:#231f20;}.cls-5{fill:#fff;}.cls-6{stroke-width:2.26px;}.cls-7{font-size:26.86px;font-family:CooperHewitt-Book, Cooper Hewitt;}.cls-8{letter-spacing:0.1em;}.cls-9{letter-spacing:0.1em;}.cls-10,.cls-16,.cls-20,.cls-22,.cls-30,.cls-47,.cls-51,.cls-60{font-size:25.77px;}.cls-10,.cls-16,.cls-20,.cls-22,.cls-30,.cls-47,.cls-51,.cls-59,.cls-60{font-family:CooperHewitt-Medium, Cooper Hewitt;font-weight:500;}.cls-11,.cls-20{letter-spacing:0.09em;}.cls-12{letter-spacing:0.11em;}.cls-13{letter-spacing:0.1em;}.cls-14,.cls-51{letter-spacing:0.1em;}.cls-15{letter-spacing:0.1em;}.cls-16{letter-spacing:0.07em;}.cls-17{letter-spacing:0.1em;}.cls-18{letter-spacing:0.11em;}.cls-19{letter-spacing:0em;}.cls-21{letter-spacing:0em;}.cls-22,.cls-50{letter-spacing:0.1em;}.cls-23{letter-spacing:0.11em;}.cls-24{letter-spacing:0.1em;}.cls-25{letter-spacing:0.08em;}.cls-26,.cls-60{letter-spacing:0.1em;}.cls-27{letter-spacing:0.09em;}.cls-28{letter-spacing:0.1em;}.cls-29{letter-spacing:0.09em;}.cls-30{letter-spacing:0.11em;}.cls-31{letter-spacing:0.1em;}.cls-32{letter-spacing:0.1em;}.cls-33{letter-spacing:0.1em;}.cls-34{letter-spacing:0.1em;}.cls-35{letter-spacing:0em;}.cls-36{letter-spacing:0.12em;}.cls-37{letter-spacing:0.08em;}.cls-38{letter-spacing:0.1em;}.cls-39{letter-spacing:0.09em;}.cls-40{letter-spacing:0.09em;}.cls-41,.cls-47{letter-spacing:0.09em;}.cls-42{letter-spacing:0.09em;}.cls-43{letter-spacing:0.12em;}.cls-44{letter-spacing:0.1em;}.cls-45{letter-spacing:0.1em;}.cls-46{letter-spacing:0.09em;}.cls-48{letter-spacing:0.09em;}.cls-49{letter-spacing:0.1em;}.cls-52{letter-spacing:0.1em;}.cls-53{letter-spacing:0.03em;}.cls-54{letter-spacing:0.03em;}.cls-55{letter-spacing:0.1em;}.cls-56{letter-spacing:0.11em;}.cls-57{letter-spacing:0.1em;}.cls-58{letter-spacing:0.07em;}.cls-59{font-size:26.47px;}.cls-61{letter-spacing:0.11em;}.cls-62{letter-spacing:0.1em;}.cls-63{letter-spacing:0.1em;}.cls-64{letter-spacing:0em;}.cls-65{stroke:#000;}</style><clipPath id="clip-path"><rect class="cls-1" x="117.91" y="175.92" width="1675.84" height="776.35"/></clipPath></defs><title>interview-arc</title><g class="cls-2"><path class="cls-3" d="M153.39,885.16c117.06-12.86,233.9-27.55,350.71-42.41,103.69-13.2,207.2-28.8,309.13-52.08,70.16-16,141.27-33,205.47-66.26,71.61-37.14,110.94-90,150-158.3,59.39-103.75,104.6-215.83,166.14-318.11,18.52-30.76,54.75-59.76,92.07-40.8,32.74,16.63,49,51,60.22,83.94,14,40.85,25.3,82.77,37.83,124.07,30.19,99.55,60.21,199.27,97.38,296.54,8.72,22.82,21.48,69.77,51,73.49,30.16,3.79,49.41-41.77,60.1-77.23"/></g><polygon class="cls-4" points="1754.27 720.65 1742.08 675.36 1708.53 708.45 1754.27 720.65"/><g class="cls-2"><path class="cls-5" d="M180.51,885.16a27.13,27.13,0,1,1-27.12-26.84,27,27,0,0,1,27.12,26.84"/><path class="cls-6" d="M180.51,885.16a27.13,27.13,0,1,1-27.12-26.84A27,27,0,0,1,180.51,885.16Z"/><line class="cls-6" x1="124.69" y1="936.02" x2="1748.46" y2="941.13"/><polygon class="cls-4" points="1745.13 952.28 1764.7 941.18 1745.2 929.95 1745.13 952.28"/></g><text class="cls-7" transform="translate(1699.63 908.87) scale(1.01 1)"><tspan class="cls-8">T</tspan><tspan class="cls-9" x="16.52" y="0">I</tspan><tspan class="cls-8" x="25.36" y="0">M</tspan><tspan x="49.61" y="0">E</tspan></text><text class="cls-10" transform="translate(77.36 786.17) scale(1.01 1)"><tspan class="cls-11">I</tspan><tspan class="cls-12" x="8.81" y="0">NT</tspan><tspan class="cls-13" x="45.07" y="0">R</tspan><tspan class="cls-14" x="62.98" y="0">OD</tspan><tspan class="cls-15" x="101.68" y="0">U</tspan><tspan class="cls-14" x="120.93" y="0">C</tspan><tspan x="139.71" y="0">E </tspan></text><text class="cls-10" transform="translate(243.53 786.17) scale(1.01 1)"> </text><text class="cls-10" transform="translate(243.5 786.17) scale(1.01 1)"> </text><text class="cls-16" transform="translate(85.33 821.86) scale(1.01 1)">Y<tspan class="cls-14" x="17.19" y="0">O</tspan><tspan class="cls-15" x="36.67" y="0">UR</tspan><tspan class="cls-14" x="73.9" y="0">S</tspan><tspan class="cls-17" x="92.2" y="0">E</tspan><tspan class="cls-18" x="109" y="0">L</tspan><tspan class="cls-19" x="124.69" y="0">F</tspan></text><text class="cls-20" transform="translate(521.68 732.65) scale(1.01 1)">I<tspan class="cls-12" x="8.81" y="0">NT</tspan><tspan class="cls-13" x="45.07" y="0">R</tspan><tspan class="cls-14" x="62.98" y="0">OD</tspan><tspan class="cls-15" x="101.68" y="0">U</tspan><tspan class="cls-14" x="120.93" y="0">C</tspan><tspan class="cls-21" x="139.71" y="0">E </tspan></text><text class="cls-10" transform="translate(687.85 732.65) scale(1.01 1)"> </text><text class="cls-10" transform="translate(687.83 732.65) scale(1.01 1)"> </text><text class="cls-22" transform="translate(538.97 768.34) scale(1.01 1)">P<tspan class="cls-13" x="17.57" y="0">R</tspan><tspan class="cls-23" x="35.48" y="0">O</tspan><tspan class="cls-24" x="55.22" y="0">J</tspan><tspan class="cls-25" x="70.91" y="0">E</tspan><tspan class="cls-26" x="87.33" y="0">C</tspan><tspan class="cls-19" x="106.14" y="0">T</tspan></text><text class="cls-10" transform="translate(980.33 581.06) scale(1.01 1)"><tspan class="cls-27">B</tspan><tspan class="cls-28" x="17.88" y="0">U</tspan><tspan class="cls-29" x="37.08" y="0">I</tspan><tspan class="cls-18" x="45.89" y="0">L</tspan><tspan x="61.58" y="0">D </tspan></text><text class="cls-10" transform="translate(1069.87 581.06) scale(1.01 1)"> </text><text class="cls-10" transform="translate(1069.88 581.06) scale(1.01 1)"> </text><text class="cls-30" transform="translate(957.49 616.75) scale(1.01 1)">R<tspan class="cls-31" x="18.29" y="0">A</tspan><tspan class="cls-32" x="36.98" y="0">P</tspan><tspan class="cls-33" x="54.58" y="0">P</tspan><tspan class="cls-34" x="72.33" y="0">O</tspan><tspan class="cls-26" x="91.78" y="0">R</tspan><tspan class="cls-35" x="109.77" y="0">T</tspan></text><text class="cls-10" transform="translate(1114.1 318) scale(1.01 1)"><tspan class="cls-36">E</tspan><tspan class="cls-37" x="17.37" y="0">V</tspan><tspan class="cls-34" x="35.43" y="0">O</tspan><tspan class="cls-26" x="54.88" y="0">K</tspan><tspan x="72.54" y="0">E </tspan></text><text class="cls-10" transform="translate(1212.38 318) scale(1.01 1)"> </text><text class="cls-10" transform="translate(1100.98 353.69) scale(1.01 1)"><tspan class="cls-38">S</tspan><tspan class="cls-39" x="18.35" y="0">T</tspan><tspan class="cls-34" x="34.25" y="0">O</tspan><tspan class="cls-40" x="53.7" y="0">R</tspan><tspan class="cls-41" x="71.48" y="0">I</tspan><tspan class="cls-42" x="80.32" y="0">E</tspan><tspan x="97.09" y="0">S</tspan></text><text class="cls-10" transform="translate(1342.25 126.93) scale(1.01 1)"><tspan class="cls-43">E</tspan><tspan class="cls-44" x="17.34" y="0">X</tspan><tspan class="cls-45" x="36.1" y="0">P</tspan><tspan class="cls-27" x="53.67" y="0">L</tspan><tspan class="cls-34" x="68.95" y="0">O</tspan><tspan class="cls-46" x="88.41" y="0">R</tspan><tspan x="106.24" y="0">E </tspan></text><text class="cls-10" transform="translate(1474.6 126.93) scale(1.01 1)"> </text><text class="cls-47" transform="translate(1332.43 162.62) scale(1.01 1)">E<tspan class="cls-26" x="16.8" y="0">M</tspan><tspan class="cls-48" x="40.69" y="0">O</tspan><tspan class="cls-49" x="59.88" y="0">T</tspan><tspan class="cls-50" x="76.17" y="0">I</tspan><tspan class="cls-14" x="85.03" y="0">ON</tspan><tspan class="cls-35" x="124.25" y="0">S</tspan></text><text class="cls-51" transform="translate(1593.66 318.03) scale(1.01 1)">Q<tspan class="cls-26" x="19.48" y="0">U</tspan><tspan class="cls-29" x="38.73" y="0">E</tspan><tspan class="cls-52" x="55.5" y="0">S</tspan><tspan class="cls-49" x="73.85" y="0">T</tspan><tspan class="cls-50" x="90.13" y="0">I</tspan><tspan class="cls-34" x="99" y="0">O</tspan><tspan class="cls-35" x="118.45" y="0">N </tspan></text><text class="cls-10" transform="translate(1741.26 318.03) scale(1.01 1)"> </text><text class="cls-10" transform="translate(1573.53 353.71) scale(1.01 1)"><tspan class="cls-38">S</tspan><tspan class="cls-53" x="18.35" y="0">T</tspan><tspan class="cls-54" x="32.85" y="0">A</tspan><tspan class="cls-12" x="49.73" y="0">T</tspan><tspan class="cls-55" x="66.09" y="0">E</tspan><tspan class="cls-14" x="82.89" y="0">M</tspan><tspan class="cls-41" x="106.75" y="0">E</tspan><tspan class="cls-56" x="123.55" y="0">N</tspan><tspan class="cls-49" x="143.45" y="0">T</tspan><tspan x="159.73" y="0">S</tspan></text><text class="cls-10" transform="translate(1691.26 628.45) scale(1.01 1)"><tspan class="cls-12">THA</tspan><tspan class="cls-28" x="54.45" y="0">N</tspan><tspan class="cls-57" x="74.16" y="0">K </tspan><tspan class="cls-58" x="99.54" y="0">Y</tspan><tspan class="cls-26" x="116.73" y="0">O</tspan><tspan x="136.23" y="0">U </tspan></text><text class="cls-59" transform="translate(1842.71 685.58)"> </text><text class="cls-59" transform="translate(1842.71 685.58)"> </text><text class="cls-60" transform="translate(1692.51 664.13) scale(1.01 1)">&amp; W<tspan class="cls-61" x="53.62" y="0">R</tspan><tspan class="cls-62" x="71.92" y="0">A</tspan><tspan class="cls-63" x="90.6" y="0">P</tspan><tspan x="108.25" y="0" xml:space="preserve"> U</tspan><tspan class="cls-64" x="135.23" y="0">P</tspan></text><rect class="cls-65" x="36.5" y="45.5" width="1850" height="992" rx="82.54"/></svg>