<svg xmlns="http://www.w3.org/2000/svg" viewBox="0 0 1224 790.76"><defs><style>.cls-1,.cls-10,.cls-11,.cls-12,.cls-3,.cls-4,.cls-5,.cls-6,.cls-7{fill:none;}.cls-1{opacity:0;}.cls-2,.cls-8,.cls-9{fill:#fff;}.cls-10,.cls-11,.cls-12,.cls-2,.cls-3,.cls-4,.cls-5,.cls-6,.cls-7,.cls-9{stroke:#000;}.cls-10,.cls-12,.cls-2,.cls-3,.cls-4,.cls-5,.cls-6,.cls-7{stroke-miterlimit:10;}.cls-11,.cls-12,.cls-2,.cls-4,.cls-5,.cls-7{stroke-width:2px;}.cls-5{stroke-dasharray:5.13 4.1;}.cls-6{stroke-width:7px;}.cls-7{stroke-dasharray:7 7;}.cls-11,.cls-9{stroke-linejoin:round;}.cls-9{stroke-width:2.5px;}.cls-10{stroke-width:2.64px;}.cls-11,.cls-12{stroke-linecap:round;}</style></defs><title>New-Diagrams-during</title><g id="Cover"><rect class="cls-1" x="1.14" y="0.37" width="1222.86" height="790.39"/></g><g id="Art"><circle class="cls-2" cx="957.32" cy="319.58" r="145.9"/><circle class="cls-2" cx="433.34" cy="295.36" r="145.9"/><rect class="cls-3" x="357.36" y="215.78" width="66" height="66" rx="5"/><rect class="cls-3" x="443.31" y="215.78" width="66" height="66" rx="5"/><rect class="cls-3" x="881.35" y="240.02" width="66" height="66" rx="5"/><rect class="cls-3" x="967.3" y="240.02" width="66" height="66" rx="5"/><rect class="cls-3" x="881.35" y="336.7" width="66" height="66" rx="5"/><rect class="cls-3" x="967.3" y="336.7" width="66" height="66" rx="5"/><rect class="cls-3" x="357.36" y="312.49" width="66" height="66" rx="5"/><rect class="cls-3" x="443.31" y="312.49" width="66" height="66" rx="5"/><polyline class="cls-4" points="499.31 269.28 499.31 271.78 496.81 271.78"/><line class="cls-5" x1="492.71" y1="271.78" x2="457.86" y2="271.78"/><polyline class="cls-4" points="455.81 271.78 453.31 271.78 453.31 269.28"/><line class="cls-5" x1="453.31" y1="265.18" x2="453.31" y2="230.33"/><polyline class="cls-4" points="453.31 228.28 453.31 225.78 455.81 225.78"/><line class="cls-5" x1="459.91" y1="225.78" x2="494.76" y2="225.78"/><polyline class="cls-4" points="496.81 225.78 499.31 225.78 499.31 228.28"/><line class="cls-5" x1="499.31" y1="232.38" x2="499.31" y2="267.23"/><path class="cls-6" d="M643.59,684.8c-11.34.14-19.73.21-31.2.21-148.7,0-284.33-11-401.46-31.1"/><polygon points="215.7 643.95 196.09 651.3 212.26 664.61 215.7 643.95"/><path class="cls-7" d="M642.62,681c-211.08-11.72-371.09-97.51-371.09-204.92,0-31.64,14.23-61.64,39.71-88.51"/><polygon points="313.82 392.11 316.27 382.44 306.68 385.15 313.82 392.11"/><path class="cls-6" d="M575.41,262.05q20.69-.76,41.8-.76c65.34,0,127.76,5.5,185,15.5"/><polygon points="797.31 286.63 817 279.51 800.99 266.01 797.31 286.63"/><path class="cls-6" d="M1080.35,397.82c23.85,25.61,37,53.64,37,83,0,65.63-65.58,124.53-169.55,164.76"/><polygon points="946.91 634.64 933.67 650.86 954.34 654.22 946.91 634.64"/><circle class="cls-2" cx="133.23" cy="651.86" r="62.86"/><rect class="cls-8" x="232.02" y="500.77" width="146.69" height="49.14" rx="9"/><path d="M369.71,501.77a8,8,0,0,1,8,8v31.14a8,8,0,0,1-8,8H241a8,8,0,0,1-8-8V509.77a8,8,0,0,1,8-8H369.71m0-2H241a10,10,0,0,0-10,10v31.14a10,10,0,0,0,10,10H369.71a10,10,0,0,0,10-10V509.77a10,10,0,0,0-10-10Z"/><path class="cls-6" d="M127.39,457.54l3.45-6.28C150.15,404.59,203,363.07,277.93,331.7"/><polygon points="279.05 342.59 291.91 326.06 271.17 323.19 279.05 342.59"/><rect class="cls-8" x="60.65" y="435.26" width="145.16" height="49.14" rx="9"/><path d="M196.81,436.26a8,8,0,0,1,8,8V475.4a8,8,0,0,1-8,8H69.65a8,8,0,0,1-8-8V444.26a8,8,0,0,1,8-8H196.81m0-2H69.65a10,10,0,0,0-10,10V475.4a10,10,0,0,0,10,10H196.81a10,10,0,0,0,10-10V444.26a10,10,0,0,0-10-10Z"/><path class="cls-9" d="M380.53,239.24a10,10,0,0,1,20,0c0,11.14-10,8.44-10,13.78v6.6"/><line class="cls-9" x1="390.38" y1="265.41" x2="390.38" y2="269.3"/><path class="cls-8" d="M456.77,340.28a20.27,20.27,0,0,1,16.1-14.7"/><path class="cls-10" d="M456.77,340.28a20.25,20.25,0,0,1,10.69-13"/><polygon points="467.74 331.58 472.87 325.58 465.11 324.13 467.74 331.58"/><path class="cls-8" d="M472.34,365.34a20.22,20.22,0,0,1-16.09-17.27"/><path class="cls-10" d="M472.34,365.34a20.23,20.23,0,0,1-14.59-11.78"/><polygon points="461.99 353.5 456.25 348.07 454.42 355.76 461.99 353.5"/><path class="cls-8" d="M496.38,347.94a20.22,20.22,0,0,1-15.83,17.34"/><path class="cls-10" d="M496.38,347.94a20.23,20.23,0,0,1-10.49,15.38"/><polygon points="485.47 359.1 480.55 365.28 488.36 366.45 485.47 359.1"/><path class="cls-8" d="M480,325.63a20.26,20.26,0,0,1,15.41,13.31c.15.46.29.92.42,1.39"/><path class="cls-10" d="M480,325.63a20.23,20.23,0,0,1,13.61,9.46"/><polygon points="489.44 335.72 495.86 340.33 496.64 332.47 489.44 335.72"/><path class="cls-4" d="M407.39,360.55v-9.7a6.67,6.67,0,0,0-6.81-6.47H397l-1.86,1.77a7.1,7.1,0,0,1-9.63,0l-1.86-1.77h-3.54a6.66,6.66,0,0,0-6.81,6.47v9.7"/><path d="M390.36,324.44A7.36,7.36,0,1,1,383,331.8a7.37,7.37,0,0,1,7.36-7.36m0-2a9.36,9.36,0,1,0,9.37,9.36,9.36,9.36,0,0,0-9.37-9.36Z"/><path class="cls-11" d="M975.93,266.59A13.09,13.09,0,1,1,989,279.67a13.09,13.09,0,0,1-13.08-13.08"/><circle class="cls-11" cx="995.61" cy="284.41" r="13.08"/><path class="cls-11" d="M993.19,271c0-9.3,7.53-16.1,16.83-16.1a16.83,16.83,0,1,1-10.25,30.18"/><path class="cls-11" d="M909.27,252a22.07,22.07,0,0,1,11.94.7c2.14.77,7.44,3.17,5.35,6.22a5,5,0,0,1-2.61,1.69c-5.81,1.87-13.42-.16-19.12-1.7-3.24-.88-8.9-3.49-12.08-1.24a4.79,4.79,0,0,0-1.79,3.78c-.1,3.24,1.46,6.55,3.21,9.18A28.59,28.59,0,0,0,909,281.87c8.72,2.81,21.12,1.47,27.12-6.36,2-2.54,4-7.33.52-9.59a10,10,0,0,0-9.27-.24c-2.59,1.55-3.45,5-3.18,8s1.44,5.86,1.92,8.84.75,7.4-1.55,9.64c-3.86,3.76-9.67,1.67-13.89-.26-2.85-1.3-5.59-2.8-8.35-4.27A16.15,16.15,0,0,0,898.9,286a3.35,3.35,0,0,0-2.49.24c-3.35,1.93-.87,6.81,1.2,8.59A14.59,14.59,0,0,0,907,298.1"/><path class="cls-12" d="M1023.11,383.54h-12.76a3.31,3.31,0,0,1-3.3-3.3v-8a3.31,3.31,0,0,0-3.3-3.3H982.3a3.31,3.31,0,0,1-3.3-3.3v-7.15a8.9,8.9,0,0,1,2.38-5.59l4.77-4.56a4.66,4.66,0,0,1,5.24-.63L1012.44,360c1.57.91,2.86.17,2.86-1.64v-7.18a3.31,3.31,0,0,0-3.3-3.3h-.93a7.12,7.12,0,0,0-5.2,2.7l-5.38,7.67a7.19,7.19,0,0,1-5.2,2.7h-2.58a3.31,3.31,0,0,0-3.3,3.3v8a3.31,3.31,0,0,1-3.3,3.3h-2.58a3.31,3.31,0,0,0-3.3,3.3v3.56a3.31,3.31,0,0,0,3.3,3.3h11.33a3.31,3.31,0,0,1,3.3,3.3v5.54"/><path class="cls-11" d="M887.94,374.7l7.3-19.22c1.29-3.39,2.8-3.23,3.35.35l5,32.15c.56,3.59,1.51,3.59,2.11,0l6.43-38.21c.6-3.58,1.51-3.56,2,0l3.29,23c.51,3.59,1.64,3.65,2.51.12L923.39,359c.87-3.52,1.92-3.46,2.32.15l2.89,25.47c.41,3.61,1.79,3.78,3.06.38l7.59-20.22"/><circle class="cls-2" cx="788.51" cy="667.88" r="145.9"/><rect class="cls-8" x="766.55" y="702.04" width="40.82" height="31.57"/><path d="M806.36,703V732.6H767.55V703h38.81m2-2H765.55V734.6h42.81V701Z"/><line class="cls-4" x1="767.3" y1="709.99" x2="806.8" y2="709.99"/><line class="cls-4" x1="772.15" y1="717.83" x2="775.45" y2="717.83"/><line class="cls-4" x1="778.75" y1="717.83" x2="801.85" y2="717.83"/><line class="cls-4" x1="772.15" y1="725.68" x2="775.45" y2="725.68"/><line class="cls-4" x1="778.75" y1="725.68" x2="801.85" y2="725.68"/><line class="cls-11" x1="721.92" y1="621.51" x2="771.93" y2="621.51"/><polyline class="cls-11" points="724.86 608.53 744.78 608.53 771.73 621.51"/><polyline class="cls-11" points="724.98 634.49 744.78 634.49 771.73 621.51"/><path d="M745.44,597.24c2.93,6.33,4.6,15.11,4.6,24.32s-1.65,17.89-4.56,24.22h-.71c-2.9-6.33-4.55-15.07-4.55-24.22s1.67-18,4.6-24.32h.62m1.25-2h-3.12c-3.28,6.43-5.35,15.84-5.35,26.32s2,19.79,5.3,26.22h3.22c3.25-6.43,5.3-15.8,5.3-26.22s-2.07-19.89-5.35-26.32Z"/><line class="cls-11" x1="805.24" y1="621.14" x2="858.04" y2="621.14"/><polyline class="cls-11" points="810.76 608.69 831.28 608.69 846.49 603.21"/><polyline class="cls-11" points="810.93 633.58 831.28 633.58 846.44 639.09"/><path class="cls-11" d="M837.52,647.61c-2.23-6.48-3.64-15.91-3.64-26.42s1.42-20,3.67-26.52H825c2.25,6.48,3.67,16,3.67,26.52s-1.4,19.94-3.63,26.42Z"/><rect class="cls-3" x="712.54" y="588.32" width="66" height="66" rx="5"/><rect class="cls-3" x="798.49" y="588.32" width="66" height="66" rx="5"/><rect class="cls-3" x="755.5" y="685.01" width="66" height="66" rx="5"/></g></svg>