<svg id="Layer_1" data-name="Layer 1" xmlns="http://www.w3.org/2000/svg" viewBox="0 0 484.4 162"><defs><style>.cls-1{fill:#c8e3ed;}.cls-2{fill:#ffe6c0;}.cls-3{fill:#fff;}.cls-4{fill:#0273b8;}.cls-5{fill:#fcb53b;}.cls-6,.cls-7,.cls-8{fill:none;stroke-miterlimit:10;}.cls-6,.cls-8{stroke:#0273b8;}.cls-6,.cls-7{stroke-width:2px;}.cls-7{stroke:#fcb53b;}</style></defs><title>pair-up</title><polygon class="cls-1" points="154.55 24.93 98.85 24.93 98.85 71.77 105.18 71.77 105.18 81.89 117.09 71.77 154.55 71.77 154.55 24.93"/><polygon class="cls-2" points="124.17 42.56 177.33 42.56 177.33 90.66 167.21 90.66 167.21 100.79 157.08 90.66 124.17 90.66 124.17 42.56"/><rect class="cls-3" x="120.37" y="38.86" width="30.38" height="32.91"/><path class="cls-4" d="M150,21.87V71H115.75l-.59.59-9.24,9.24V71H95.79V21.87H150m2-2H93.79V73h10.13V85.69L116.57,73H152V19.87Z"/><path class="cls-5" d="M175.33,39.5V88.66H165.21v9.83L156,89.25l-.58-.59H121.11V39.5h54.22m2-2H119.11V90.66h35.44l12.66,12.66V90.66h10.12V37.5Z"/><path class="cls-1" d="M113.57,132.86V118.43a9.91,9.91,0,0,0-10.13-9.62H94.91l-1.7,2.11c-3.94,3.74-9.35,5.42-13.29,1.68l-5.38-3.79H73.06a9.9,9.9,0,0,0-10.12,9.62v14.43"/><circle class="cls-1" cx="83.88" cy="89.98" r="11.23"/><path class="cls-6" d="M110.3,132.86V118.43a9.91,9.91,0,0,0-10.13-9.62H94.91l-2.77,2.63a10.54,10.54,0,0,1-14.32,0l-2.77-2.63H69.79a9.9,9.9,0,0,0-10.12,9.62v14.43"/><path class="cls-4" d="M85,79.16A11.93,11.93,0,1,1,73.06,91.08,11.94,11.94,0,0,1,85,79.16m0-2A13.93,13.93,0,1,0,98.91,91.08,13.92,13.92,0,0,0,85,77.16Z"/><path class="cls-2" d="M226.17,132.86V118.43A9.91,9.91,0,0,0,216,108.81h-8.52l-1.71,2.11c-3.94,3.74-9.35,5.42-13.29,1.68l-5.38-3.79h-1.47a9.91,9.91,0,0,0-10.13,9.62v14.43"/><circle class="cls-2" cx="196.48" cy="89.98" r="11.23"/><path class="cls-7" d="M222.9,132.86V118.43a9.91,9.91,0,0,0-10.13-9.62h-5.25l-2.77,2.63a10.55,10.55,0,0,1-14.33,0l-2.76-2.63H182.4a9.91,9.91,0,0,0-10.13,9.62v14.43"/><path class="cls-5" d="M197.59,79.16a11.93,11.93,0,1,1-11.93,11.92,11.94,11.94,0,0,1,11.93-11.92m0-2a13.93,13.93,0,1,0,13.92,13.92,13.93,13.93,0,0,0-13.92-13.92Z"/><path class="cls-1" d="M335.91,128.43V114a9.9,9.9,0,0,0-10.12-9.62h-8.53l-1.71,2.1c-3.93,3.75-9.35,5.43-13.29,1.69l-5.38-3.79h-1.47A9.91,9.91,0,0,0,285.28,114v14.43"/><circle class="cls-1" cx="306.23" cy="85.55" r="11.23"/><path class="cls-6" d="M332.64,128.43V114a9.9,9.9,0,0,0-10.12-9.62h-5.26L314.49,107a10.54,10.54,0,0,1-14.32,0l-2.77-2.63h-5.26A9.91,9.91,0,0,0,282,114v14.43"/><path class="cls-4" d="M307.33,74.73A11.93,11.93,0,1,1,295.4,86.65a11.94,11.94,0,0,1,11.93-11.92m0-2a13.93,13.93,0,1,0,13.92,13.92,13.93,13.93,0,0,0-13.92-13.92Z"/><path class="cls-1" d="M448.52,128.43V114a9.91,9.91,0,0,0-10.13-9.62h-8.53l-1.7,2.1c-3.94,3.75-9.35,5.43-13.29,1.69l-5.38-3.79H408A9.91,9.91,0,0,0,397.88,114v14.43"/><circle class="cls-1" cx="418.83" cy="85.55" r="11.23"/><path class="cls-6" d="M445.25,128.43V114a9.91,9.91,0,0,0-10.13-9.62h-5.26L427.09,107a10.54,10.54,0,0,1-14.32,0L410,104.38h-5.26A9.91,9.91,0,0,0,394.61,114v14.43"/><path class="cls-4" d="M419.93,74.73A11.93,11.93,0,1,1,408,86.65a11.93,11.93,0,0,1,11.92-11.92m0-2a13.93,13.93,0,1,0,13.92,13.92,13.92,13.92,0,0,0-13.92-13.92Z"/><rect class="cls-1" x="324.51" y="43.12" width="24.89" height="7.43"/><path class="cls-4" d="M348.4,42V73.35h-25V42h25m1-1h-27V74.35h27V41Z"/><line class="cls-8" x1="323.22" y1="48.17" x2="348.61" y2="48.17"/><line class="cls-8" x1="326.39" y1="39.44" x2="326.39" y2="44.2"/><line class="cls-8" x1="340.67" y1="39.44" x2="340.67" y2="44.2"/><line class="cls-8" x1="335.91" y1="39.44" x2="335.91" y2="44.2"/><line class="cls-8" x1="331.15" y1="39.44" x2="331.15" y2="44.2"/><line class="cls-8" x1="345.43" y1="39.44" x2="345.43" y2="44.2"/><line class="cls-8" x1="327.19" y1="54.52" x2="335.12" y2="54.52"/><line class="cls-8" x1="327.19" y1="59.28" x2="343.85" y2="59.28"/><line class="cls-8" x1="327.19" y1="64.04" x2="343.85" y2="64.04"/><circle class="cls-1" cx="397.88" cy="60.7" r="7.59"/><path class="cls-4" d="M414,49V68.56H381.8V49H414m1-1H380.8V69.56H415V48Z"/><path class="cls-4" d="M397.88,51.57a7.23,7.23,0,1,1-7.22,7.23,7.23,7.23,0,0,1,7.22-7.23m0-1a8.23,8.23,0,1,0,8.23,8.23,8.22,8.22,0,0,0-8.23-8.23Z"/><path class="cls-4" d="M397.88,55.37a3.43,3.43,0,1,1-3.43,3.43,3.43,3.43,0,0,1,3.43-3.43m0-1a4.43,4.43,0,1,0,4.43,4.43,4.43,4.43,0,0,0-4.43-4.43Z"/><path class="cls-4" d="M386.13,46.51V48.3h-3.07V46.51h3.07m1-1h-5.07V49.3h5.07V45.51Z"/><path class="cls-4" d="M401.8,45.24,404,48.3H391.75L394,45.24h7.83m.51-1h-8.86L389.8,49.3H406l-3.66-5.06Z"/><line class="cls-8" x1="407.38" y1="51.2" x2="412.44" y2="51.2"/></svg>